<?xml version="1.0" standalone="no"?>
<!DOCTYPE svg PUBLIC "-//W3C//DTD SVG 1.1//EN" "http://www.w3.org/Graphics/SVG/1.1/DTD/svg11.dtd">
<svg xmlns="http://www.w3.org/2000/svg">
<metadata>Theme.id</metadata>
<defs>
<font id="bootstrap-icon" horiz-adv-x="1000" >
<font-face font-family="bootstrap-icon" font-weight="400" font-stretch="normal" units-per-em="1000" ascent="850" descent="-150" />
<missing-glyph horiz-adv-x="1000" />
<glyph glyph-name="alarm-fill" unicode="&#xe800;" d="M344 819a31 31 0 0 0 31 31h250a31 31 0 0 0 0-62h-62v-67a438 438 0 0 0 221-767l51-51a31 31 0 0 0-45-44l-57 58a435 435 0 0 0-233-67 435 435 0 0 0-233 67l-57-58a31 31 0 0 0-45 44l51 51a438 438 0 0 0 222 767v67h-63a31 31 0 0 0-31 31z m-290-306a156 156 0 1 0 220 221 502 502 0 0 1-220-221z m790 275c-47 0-90-21-118-54a502 502 0 0 0 220-221 156 156 0 0 1-102 275z m-313-250a31 31 0 0 1-62 0v-243l-91-181a31 31 0 1 1 56-28l94 188a31 31 0 0 1 3 14v250z" horiz-adv-x="1000" />

<glyph glyph-name="alarm" unicode="&#xe801;" d="M375 788a31 31 0 0 0-31 31c0 17 14 31 31 31h250c17 0 31-14 31-31a31 31 0 0 0-31-31h-62v-67c210-31 375-215 375-433 0-133-61-252-155-333l52-52a31 31 0 0 0-45-44l-58 58a433 433 0 0 0-464 0l-58-58a31 31 0 1 0-45 44l52 52a437 437 0 0 0-154 333c0 218 164 402 375 433v67h-63z m125-876c206 0 375 170 375 376s-169 375-375 375-375-170-375-375 169-376 375-376z m0 657c17 0 31-14 31-31v-250a32 32 0 0 0-3-14l-94-188a31 31 0 0 0-28-17 31 31 0 0 0-28 45l91 181v243c0 17 14 31 31 31z m-446-56a156 156 0 0 0-54 118c0 86 71 156 156 156 46 0 89-19 118-53a502 502 0 0 1-220-221z m672 221a156 156 0 0 0 118 53c85 0 156-70 156-156 0-45-20-88-54-118a502 502 0 0 1-220 221z" horiz-adv-x="1000" />

<glyph glyph-name="align-bottom" unicode="&#xe802;" d="M375 725a63 63 0 0 0 63 63h125a63 63 0 0 0 62-63v-625a63 63 0 0 0-62-62h-125a63 63 0 0 0-63 62v625z m-312-781a31 31 0 0 0 31 31h812a31 31 0 0 0 0-63h-812a31 31 0 0 0-31 32z" horiz-adv-x="1000" />

<glyph glyph-name="align-center" unicode="&#xe803;" d="M500 788a31 31 0 0 0 31-32v-281h-62v281a31 31 0 0 0 31 32z m0-876a31 31 0 0 0-31 32v281h62v-281a31 31 0 0 0-31-32z m-375 501a63 63 0 0 0 63 62h625a63 63 0 0 0 62-62v-125a63 63 0 0 0-62-63h-625a63 63 0 0 0-63 63v125z" horiz-adv-x="1000" />

<glyph glyph-name="align-end" unicode="&#xe804;" d="M906 788a31 31 0 0 1-31-32v-812a31 31 0 0 1 63 0v812a31 31 0 0 1-32 32z m-93-375a63 63 0 0 1-63 62h-625a63 63 0 0 1-62-62v-125a63 63 0 0 1 62-63h625a63 63 0 0 1 63 63v125z" horiz-adv-x="1000" />

<glyph glyph-name="align-middle" unicode="&#xe805;" d="M375 38a63 63 0 0 1 63-63h125a63 63 0 0 1 62 63v625a63 63 0 0 1-62 62h-125a63 63 0 0 1-63-62v-625z m-312 312a31 31 0 0 1 31-31h281v62h-281a31 31 0 0 1-31-31z m875 0a31 31 0 0 0-32-31h-281v62h281a31 31 0 0 0 32-31z" horiz-adv-x="1000" />

<glyph glyph-name="align-start" unicode="&#xe806;" d="M94 788a31 31 0 0 0 31-32v-812a31 31 0 0 0-62 0v812a31 31 0 0 0 31 32z m94-375a63 63 0 0 0 62 62h625a63 63 0 0 0 63-62v-125a63 63 0 0 0-63-63h-625a63 63 0 0 0-62 63v125z" horiz-adv-x="1000" />

<glyph glyph-name="alt" unicode="&#xe807;" d="M63 6a31 31 0 0 1 31-31h237a31 31 0 0 1 28 16l329 672h218a31 31 0 0 1 0 62h-237a31 31 0 0 1-27-16l-329-671h-219a31 31 0 0 1-31-32z m625 0a31 31 0 0 1 31-31h187a31 31 0 0 1 0 63h-187a31 31 0 0 1-31-32z" horiz-adv-x="1000" />

<glyph glyph-name="app-indicator" unicode="&#xe808;" d="M344 725a219 219 0 0 1-219-219v-312a219 219 0 0 1 219-219h312a219 219 0 0 1 219 219v156a31 31 0 0 0 63 0v-156a281 281 0 0 0-282-282h-312a281 281 0 0 0-281 282v312a281 281 0 0 0 281 282h156a31 31 0 0 0 0-63h-156z m656-62a188 188 0 1 0-375 0 188 188 0 0 0 375 0z" horiz-adv-x="1000" />

<glyph glyph-name="app" unicode="&#xe809;" d="M688 725h-375a188 188 0 0 1-188-187v-375a188 188 0 0 1 188-188h375a188 188 0 0 1 187 188v375a188 188 0 0 1-187 187z m-375 63a250 250 0 0 1-250-250v-375a250 250 0 0 1 250-251h375a250 250 0 0 1 250 251v375a250 250 0 0 1-250 250h-375z" horiz-adv-x="1000" />

<glyph glyph-name="archive-fill" unicode="&#xe80a;" d="M790-88c84 0 148 73 148 157v469h-875v-469c0-84 63-157 147-157h580z m-415 501a31 31 0 0 1 0-63h250a31 31 0 0 1 0 63h-250z m-325 375a50 50 0 0 1-50-50v-75a50 50 0 0 1 50-50h900a50 50 0 0 1 50 50v75a50 50 0 0 1-50 50h-900z" horiz-adv-x="1000" />

<glyph glyph-name="archive" unicode="&#xe80b;" d="M125 538v-469c0-54 40-94 85-94h580c45 0 85 40 85 94v469h63v-469c0-84-64-157-148-157h-580c-84 0-147 73-147 157v469h62z m219-157a31 31 0 0 0 31 32h250a31 31 0 0 0 0-63h-250a31 31 0 0 0-31 31z m594 344h-875v-125h875v125z m-875 63a63 63 0 0 1-63-63v-125a63 63 0 0 1 63-62h875a63 63 0 0 1 62 62v125a63 63 0 0 1-62 63h-875z" horiz-adv-x="1000" />

<glyph glyph-name="arrow-90deg-down" unicode="&#xe80c;" d="M165 247a31 31 0 0 0 45 0l165-165 165 165a31 31 0 1 0 45-44l-188-188a31 31 0 0 0-44 0l-188 188a31 31 0 0 0 0 44z m210-209a31 31 0 0 0-31 31v406a156 156 0 0 0 156 156h344a31 31 0 0 0 0-62h-344a94 94 0 0 1-94-94v-406a31 31 0 0 0-31-31z" horiz-adv-x="1000" />

<glyph glyph-name="arrow-90deg-left" unicode="&#xe80d;" d="M382 700a31 31 0 0 0 0-44l-166-165 166-166a31 31 0 1 0-45-44l-187 188a31 31 0 0 0 0 44l187 187a31 31 0 0 0 45 0z m-210-209a31 31 0 0 0 31 31h406a156 156 0 0 0 157-156v-344a31 31 0 0 0-63 0v344a94 94 0 0 1-94 93h-406a31 31 0 0 0-31 32z" horiz-adv-x="1000" />

<glyph glyph-name="arrow-90deg-right" unicode="&#xe80e;" d="M619 700a31 31 0 0 1 0-44l165-165-165-166a31 31 0 1 1 44-44l187 188a31 31 0 0 1 0 44l-187 187a31 31 0 0 1-44 0z m209-209a31 31 0 0 1-31 31h-406a156 156 0 0 1-157-156v-344a31 31 0 0 1 63 0v344a94 94 0 0 0 94 93h406a31 31 0 0 1 31 32z" horiz-adv-x="1000" />

<glyph glyph-name="arrow-90deg-up" unicode="&#xe80f;" d="M165 422a31 31 0 0 1 45 0l165 165 165-165a31 31 0 1 1 45 44l-188 187a31 31 0 0 1-44 0l-188-187a31 31 0 0 1 0-44z m210 209a31 31 0 0 1-31-31v-406a156 156 0 0 1 156-156h344a31 31 0 0 1 0 62h-344a94 94 0 0 0-94 94v406a31 31 0 0 1-31 31z" horiz-adv-x="1000" />

<glyph glyph-name="arrow-bar-down" unicode="&#xe810;" d="M710 216a31 31 0 0 0 0-44l-188-188a31 31 0 0 0-44 0l-188 188a31 31 0 0 0 45 44l165-166 165 166a31 31 0 0 0 45 0z m-210 259a31 31 0 0 0 31-31v-406a31 31 0 0 0-62 0v406a31 31 0 0 0 31 31z m-375 156a31 31 0 0 0 31 32h688a31 31 0 0 0 0-63h-688a31 31 0 0 0-31 31z" horiz-adv-x="1000" />

<glyph glyph-name="arrow-bar-up" unicode="&#xe811;" d="M710 484a31 31 0 0 1 0 44l-188 188a31 31 0 0 1-44 0l-188-188a31 31 0 1 1 45-44l165 166 165-166a31 31 0 0 1 45 0z m-210-259a31 31 0 0 1 31 31v407a31 31 0 0 1-62 0v-407a31 31 0 0 1 31-31z m-300-100c0 14 11 25 25 25h550a25 25 0 0 0 0-50h-550a25 25 0 0 0-25 25z" horiz-adv-x="1000" />

<glyph glyph-name="arrow-bar-right" unicode="&#xe812;" d="M634 560a31 31 0 0 0 44 0l188-188a31 31 0 0 0 0-44l-188-188a31 31 0 0 0-44 45l166 165-166 165a31 31 0 0 0 0 45z m-259-210a31 31 0 0 0 31 31h407a31 31 0 0 0 0-62h-407a31 31 0 0 0-31 31z m-156-375a31 31 0 0 0-31 31v688a31 31 0 0 0 62 0v-688a31 31 0 0 0-31-31z" horiz-adv-x="1000" />

<glyph glyph-name="align-top" unicode="&#xe813;" d="M375-25a63 63 0 0 1 63-63h125a63 63 0 0 1 62 63v625a63 63 0 0 1-62 63h-125a63 63 0 0 1-63-63v-625z m-312 781a31 31 0 0 1 31-31h812a31 31 0 0 1 0 63h-812a31 31 0 0 1-31-32z" horiz-adv-x="1000" />

<glyph glyph-name="arrow-clockwise" unicode="&#xe814;" d="M198 431a313 313 0 0 0 444 197 31 31 0 1 1 28 56 375 375 0 1 1 171-178 31 31 0 0 1-57-26 313 313 0 1 0-586-49z m311 410a31 31 0 0 0 44 0l157-156a31 31 0 0 0 0-45l-157-156a31 31 0 1 0-44 44l134 135-134 134a31 31 0 0 0 0 44z" horiz-adv-x="1000" />

<glyph glyph-name="arrow-counterclockwise" unicode="&#xe815;" d="M802 431a313 313 0 0 1-444 197 31 31 0 1 0-28 56 375 375 0 1 0-171-178 31 31 0 1 0 57-26 313 313 0 1 1 586-49z m-311 410a31 31 0 0 1-44 0l-157-156a31 31 0 0 1 0-45l157-156a31 31 0 1 1 44 44l-134 135 134 134a31 31 0 0 1 0 44z" horiz-adv-x="1000" />

<glyph glyph-name="arrow-down-circle-fill" unicode="&#xe816;" d="M1000 350a500 500 0 1 0-1000 0 500 500 0 0 0 1000 0z m-469 188a31 31 0 0 1-62 0v-300l-134 134a31 31 0 1 1-45-44l188-188a31 31 0 0 1 44 0l188 188a31 31 0 0 1-45 44l-134-134v300z" horiz-adv-x="1000" />

<glyph glyph-name="arrow-bar-left" unicode="&#xe817;" d="M366 560a31 31 0 0 1-44 0l-188-188a31 31 0 0 1 0-44l188-188a31 31 0 0 1 44 45l-166 165 166 165a31 31 0 0 1 0 45z m259-210a31 31 0 0 1-31 31h-406a31 31 0 0 1 0-62h406a31 31 0 0 1 31 31z m156-375a31 31 0 0 0-31 31v688a31 31 0 0 0 63 0v-688a31 31 0 0 0-32-31z" horiz-adv-x="1000" />

<glyph glyph-name="arrow-down-circle" unicode="&#xe818;" d="M500-88a438 438 0 1 1 0 876 438 438 0 0 1 0-876z m0-62a500 500 0 1 1 0 1000 500 500 0 0 1 0-1000z m-210 522a31 31 0 0 0 45 0l165-165 165 165a31 31 0 0 0 45-44l-188-188a31 31 0 0 0-44 0l-188 188a31 31 0 0 0 0 44z m210 197a31 31 0 0 0 31-31v-313a31 31 0 0 0-62 0v313a31 31 0 0 0 31 31z" horiz-adv-x="1000" />

<glyph glyph-name="arrow-down-left-circle-fill" unicode="&#xe819;" d="M1000 350a500 500 0 1 0-1000 0 500 500 0 0 0 1000 0z m-406-187h-250a31 31 0 0 0-31 31v250a31 31 0 0 0 62 0v-175l259 259a31 31 0 0 0 44-44l-259-259h175a31 31 0 0 0 0-62z" horiz-adv-x="1000" />

<glyph glyph-name="arrow-down-left-circle" unicode="&#xe81a;" d="M500-88a438 438 0 1 1 0 876 438 438 0 0 1 0-876z m0-62a500 500 0 1 1 0 1000 500 500 0 0 1 0-1000z m-156 313h250a31 31 0 0 1 0 62h-175l259 259a31 31 0 0 1-44 44l-259-259v175a31 31 0 0 1-62 0v-250a31 31 0 0 1 31-31z" horiz-adv-x="1000" />

<glyph glyph-name="arrow-down-left-square-fill" unicode="&#xe81b;" d="M125 850a125 125 0 0 1-125-125v-750a125 125 0 0 1 125-125h750a125 125 0 0 1 125 125v750a125 125 0 0 1-125 125h-750z m469-687h-250a31 31 0 0 0-31 31v250a31 31 0 0 0 62 0v-175l259 259a31 31 0 0 0 44-44l-259-259h175a31 31 0 0 0 0-62z" horiz-adv-x="1000" />

<glyph glyph-name="arrow-down-left-square" unicode="&#xe81c;" d="M875 788h-750a63 63 0 0 1-62-63v-750a63 63 0 0 1 62-63h750a63 63 0 0 1 63 63v750a63 63 0 0 1-63 63z m-750 62a125 125 0 0 1-125-125v-750a125 125 0 0 1 125-125h750a125 125 0 0 1 125 125v750a125 125 0 0 1-125 125h-750z m219-687h250a31 31 0 0 1 0 62h-175l259 259a31 31 0 0 1-44 44l-259-259v175a31 31 0 0 1-62 0v-250a31 31 0 0 1 31-31z" horiz-adv-x="1000" />

<glyph glyph-name="arrow-down-left" unicode="&#xe81d;" d="M188 381a31 31 0 0 0 31-31v-281h281a31 31 0 0 0 0-63h-312a31 31 0 0 0-32 32v312a31 31 0 0 0 32 31z m584 241a31 31 0 0 0 0-44l-562-563a31 31 0 0 0-45 45l563 562a31 31 0 0 0 44 0z" horiz-adv-x="1000" />

<glyph glyph-name="arrow-down-right-circle-fill" unicode="&#xe81e;" d="M1000 350a500 500 0 1 0-1000 0 500 500 0 0 0 1000 0z m-594-187h250a31 31 0 0 1 32 31v250a31 31 0 0 1-63 0v-175l-259 259a31 31 0 1 1-44-44l259-259h-175a31 31 0 0 1 0-62z" horiz-adv-x="1000" />

<glyph glyph-name="arrow-down-right-circle" unicode="&#xe81f;" d="M500-88a438 438 0 1 1 0 876 438 438 0 0 1 0-876z m0-62a500 500 0 1 1 0 1000 500 500 0 0 1 0-1000z m156 313h-250a31 31 0 0 0 0 62h175l-259 259a31 31 0 1 0 44 44l259-259v175a31 31 0 0 0 63 0v-250a31 31 0 0 0-32-31z" horiz-adv-x="1000" />

<glyph glyph-name="arrow-down-right-square-fill" unicode="&#xe820;" d="M125 850a125 125 0 0 1-125-125v-750a125 125 0 0 1 125-125h750a125 125 0 0 1 125 125v750a125 125 0 0 1-125 125h-750z m281-687h250a31 31 0 0 1 32 31v250a31 31 0 0 1-63 0v-175l-259 259a31 31 0 1 1-44-44l259-259h-175a31 31 0 0 1 0-62z" horiz-adv-x="1000" />

<glyph glyph-name="arrow-down-right-square" unicode="&#xe821;" d="M875 788h-750a63 63 0 0 1-62-63v-750a63 63 0 0 1 62-63h750a63 63 0 0 1 63 63v750a63 63 0 0 1-63 63z m-750 62a125 125 0 0 1-125-125v-750a125 125 0 0 1 125-125h750a125 125 0 0 1 125 125v750a125 125 0 0 1-125 125h-750z m531-687h-250a31 31 0 0 0 0 62h175l-259 259a31 31 0 1 0 44 44l259-259v175a31 31 0 0 0 63 0v-250a31 31 0 0 0-32-31z" horiz-adv-x="1000" />

<glyph glyph-name="arrow-down-right" unicode="&#xe822;" d="M750 381a31 31 0 0 0 31-31v-312a31 31 0 0 0-31-32h-312a31 31 0 0 0 0 63h281v281a31 31 0 0 0 31 31z m-585 241a31 31 0 0 0 45 0l562-562a31 31 0 0 0-44-45l-563 563a31 31 0 0 0 0 44z" horiz-adv-x="1000" />

<glyph glyph-name="arrow-down-short" unicode="&#xe823;" d="M290 372a31 31 0 0 0 45 0l165-165 165 165a31 31 0 0 0 45-44l-188-188a31 31 0 0 0-44 0l-188 188a31 31 0 0 0 0 44z m210 197a31 31 0 0 0 31-31v-313a31 31 0 0 0-62 0v313a31 31 0 0 0 31 31z" horiz-adv-x="1000" />

<glyph glyph-name="arrow-down-square-fill" unicode="&#xe824;" d="M125 850a125 125 0 0 1-125-125v-750a125 125 0 0 1 125-125h750a125 125 0 0 1 125 125v750a125 125 0 0 1-125 125h-750z m406-312a31 31 0 0 1-62 0v-300l-134 134a31 31 0 1 1-45-44l188-188a31 31 0 0 1 44 0l188 188a31 31 0 0 1-45 44l-134-134v300z" horiz-adv-x="1000" />

<glyph glyph-name="arrow-down-square" unicode="&#xe825;" d="M875 788h-750a63 63 0 0 1-62-63v-750a63 63 0 0 1 62-63h750a63 63 0 0 1 63 63v750a63 63 0 0 1-63 63z m-750 62a125 125 0 0 1-125-125v-750a125 125 0 0 1 125-125h750a125 125 0 0 1 125 125v750a125 125 0 0 1-125 125h-750z m165-478a31 31 0 0 0 45 0l165-165 165 165a31 31 0 0 0 45-44l-188-188a31 31 0 0 0-44 0l-188 188a31 31 0 0 0 0 44z m210 197a31 31 0 0 0 31-31v-313a31 31 0 0 0-62 0v313a31 31 0 0 0 31 31z" horiz-adv-x="1000" />

<glyph glyph-name="arrow-down-up" unicode="&#xe826;" d="M688 631a31 31 0 0 0 31-31v-562a31 31 0 0 0-63 0v562a31 31 0 0 0 32 31z m-23 54a31 31 0 0 0 45 0l187-188a31 31 0 0 0-44-44l-165 165-166-165a31 31 0 1 0-44 44l187 188z m-562-438a31 31 0 0 0 44 0l166-165 165 165a31 31 0 1 0 44-44l-187-188a31 31 0 0 0-45 0l-187 188a31 31 0 0 0 0 44z m210 447a31 31 0 0 0 31-31v-563a31 31 0 0 0-63 0v563a31 31 0 0 0 32 31z" horiz-adv-x="1000" />

<glyph glyph-name="arrow-down" unicode="&#xe827;" d="M290 247a31 31 0 0 0 45 0l165-165 165 165a31 31 0 0 0 45-44l-188-188a31 31 0 0 0-44 0l-188 188a31 31 0 0 0 0 44z m210 447a31 31 0 0 0 31-31v-563a31 31 0 0 0-62 0v563a31 31 0 0 0 31 31z" horiz-adv-x="1000" />

<glyph glyph-name="arrow-left-circle-fill" unicode="&#xe828;" d="M1000 350a500 500 0 1 0-1000 0 500 500 0 0 0 1000 0z m-478-165a31 31 0 0 0-44-45l-188 188a31 31 0 0 0 0 44l188 188a31 31 0 1 0 44-45l-134-134h300a31 31 0 0 0 0-62h-300l134-134z" horiz-adv-x="1000" />

<glyph glyph-name="arrow-left-circle" unicode="&#xe829;" d="M500-88a438 438 0 1 1 0 876 438 438 0 0 1 0-876z m0-62a500 500 0 1 1 0 1000 500 500 0 0 1 0-1000z m22 290a31 31 0 0 1 0 45l-165 165 165 165a31 31 0 1 1-44 45l-188-188a31 31 0 0 1 0-44l188-188a31 31 0 0 1 44 0z m197 210a31 31 0 0 1-31 31h-313a31 31 0 0 1 0-62h313a31 31 0 0 1 31 31z" horiz-adv-x="1000" />

<glyph glyph-name="arrow-left-right" unicode="&#xe82a;" d="M634 372a31 31 0 0 0 44 0l188-187a31 31 0 0 0 0-45l-188-187a31 31 0 0 0-44 44l166 166-166 165a31 31 0 0 0 0 44z m-509-209a31 31 0 0 0 31 31h657a31 31 0 0 0 0-63h-657a31 31 0 0 0-31 32z m241 584a31 31 0 0 0 0-44l-166-165 166-166a31 31 0 1 0-44-44l-188 187a31 31 0 0 0 0 45l188 187a31 31 0 0 0 44 0z m-210-209a31 31 0 0 0 32 31h656a31 31 0 0 0 0-63h-656a31 31 0 0 0-32 32z" horiz-adv-x="1000" />

<glyph glyph-name="arrow-left-short" unicode="&#xe82b;" d="M491 560a31 31 0 0 0 0-45l-166-165 166-165a31 31 0 0 0-44-45l-188 188a31 31 0 0 0 0 44l188 188a31 31 0 0 0 44 0z m-210-210a31 31 0 0 0 32 31h406a31 31 0 0 0 0-62h-406a31 31 0 0 0-32 31z" horiz-adv-x="1000" />

<glyph glyph-name="arrow-left-square-fill" unicode="&#xe82c;" d="M125 850a125 125 0 0 1-125-125v-750a125 125 0 0 1 125-125h750a125 125 0 0 1 125 125v750a125 125 0 0 1-125 125h-750z m397-665a31 31 0 0 0-44-45l-188 188a31 31 0 0 0 0 44l188 188a31 31 0 1 0 44-45l-134-134h300a31 31 0 0 0 0-62h-300l134-134z" horiz-adv-x="1000" />

<glyph glyph-name="arrow-left" unicode="&#xe82d;" d="M366 560a31 31 0 0 0 0-45l-166-165 166-165a31 31 0 0 0-44-45l-188 188a31 31 0 0 0 0 44l188 188a31 31 0 0 0 44 0z m-210-210a31 31 0 0 0 32 31h656a31 31 0 0 0 0-62h-656a31 31 0 0 0-32 31z" horiz-adv-x="1000" />

<glyph glyph-name="arrow-left-square" unicode="&#xe82e;" d="M875 788h-750a63 63 0 0 1-62-63v-750a63 63 0 0 1 62-63h750a63 63 0 0 1 63 63v750a63 63 0 0 1-63 63z m-750 62a125 125 0 0 1-125-125v-750a125 125 0 0 1 125-125h750a125 125 0 0 1 125 125v750a125 125 0 0 1-125 125h-750z m397-710a31 31 0 0 1 0 45l-165 165 165 165a31 31 0 1 1-44 45l-188-188a31 31 0 0 1 0-44l188-188a31 31 0 0 1 44 0z m197 210a31 31 0 0 1-31 31h-313a31 31 0 0 1 0-62h313a31 31 0 0 1 31 31z" horiz-adv-x="1000" />

<glyph glyph-name="arrow-return-left" unicode="&#xe82f;" d="M366 497a31 31 0 0 0 0-44l-166-165 166-166a31 31 0 0 0-44-44l-188 187a31 31 0 0 0 0 45l188 187a31 31 0 0 0 44 0z m478 197a31 31 0 0 0 31-31v-250a156 156 0 0 0-156-157h-531a31 31 0 0 0 0 63h531a94 94 0 0 1 94 94v250a31 31 0 0 0 31 31z" horiz-adv-x="1000" />

<glyph glyph-name="arrow-repeat" unicode="&#xe830;" d="M178 403a31 31 0 0 1-44 0l-125-125a31 31 0 1 1 44-44l103 103 103-103a31 31 0 0 1 44 44l-125 125z m813 63a31 31 0 0 1-44 0l-103-103-103 103a31 31 0 0 1-44-44l125-125a31 31 0 0 1 44 0l125 125a31 31 0 0 1 0 44z m-491 197a312 312 0 0 1-262-143 31 31 0 0 0-52 35 375 375 0 0 0 689-205 31 31 0 0 0-63 0 313 313 0 0 1-312 313z m-344-282a31 31 0 0 0 32-31 313 313 0 0 1 574-170 31 31 0 1 0 52-35 375 375 0 0 0-689 205 31 31 0 0 0 31 31z" horiz-adv-x="1000" />

<glyph glyph-name="arrow-right-circle-fill" unicode="&#xe831;" d="M1000 350a500 500 0 1 0-1000 0 500 500 0 0 0 1000 0z m-522-165a31 31 0 0 1 44-45l188 188a31 31 0 0 1 0 44l-188 188a31 31 0 1 1-44-45l134-134h-299a31 31 0 0 1 0-62h299l-134-134z" horiz-adv-x="1000" />

<glyph glyph-name="arrow-return-right" unicode="&#xe832;" d="M634 497a31 31 0 0 0 44 0l188-187a31 31 0 0 0 0-45l-188-187a31 31 0 0 0-44 44l166 166-166 165a31 31 0 0 0 0 44z m-446 197a31 31 0 0 1-32-31v-250a156 156 0 0 1 157-157h531a31 31 0 0 1 0 63h-531a94 94 0 0 0-94 94v250a31 31 0 0 1-31 31z" horiz-adv-x="1000" />

<glyph glyph-name="arrow-right-circle" unicode="&#xe833;" d="M500-88a438 438 0 1 1 0 876 438 438 0 0 1 0-876z m0-62a500 500 0 1 1 0 1000 500 500 0 0 1 0-1000z m-22 290a31 31 0 0 0 0 45l165 165-165 165a31 31 0 1 0 44 45l188-188a31 31 0 0 0 0-44l-188-188a31 31 0 0 0-44 0z m-197 210a31 31 0 0 0 32 31h312a31 31 0 0 0 0-62h-312a31 31 0 0 0-32 31z" horiz-adv-x="1000" />

<glyph glyph-name="arrow-right-short" unicode="&#xe834;" d="M509 560a31 31 0 0 0 44 0l188-188a31 31 0 0 0 0-44l-188-188a31 31 0 0 0-44 45l166 165-166 165a31 31 0 0 0 0 45z m-259-210a31 31 0 0 0 31 31h407a31 31 0 0 0 0-62h-407a31 31 0 0 0-31 31z" horiz-adv-x="1000" />

<glyph glyph-name="arrow-right-square-fill" unicode="&#xe835;" d="M125 850a125 125 0 0 1-125-125v-750a125 125 0 0 1 125-125h750a125 125 0 0 1 125 125v750a125 125 0 0 1-125 125h-750z m353-665a31 31 0 0 1 44-45l188 188a31 31 0 0 1 0 44l-188 188a31 31 0 1 1-44-45l134-134h-299a31 31 0 0 1 0-62h299l-134-134z" horiz-adv-x="1000" />

<glyph glyph-name="arrow-right-square" unicode="&#xe836;" d="M875 788h-750a63 63 0 0 1-62-63v-750a63 63 0 0 1 62-63h750a63 63 0 0 1 63 63v750a63 63 0 0 1-63 63z m-750 62a125 125 0 0 1-125-125v-750a125 125 0 0 1 125-125h750a125 125 0 0 1 125 125v750a125 125 0 0 1-125 125h-750z m353-710a31 31 0 0 0 0 45l165 165-165 165a31 31 0 1 0 44 45l188-188a31 31 0 0 0 0-44l-188-188a31 31 0 0 0-44 0z m-197 210a31 31 0 0 0 32 31h312a31 31 0 0 0 0-62h-312a31 31 0 0 0-32 31z" horiz-adv-x="1000" />

<glyph glyph-name="arrow-right" unicode="&#xe837;" d="M634 560a31 31 0 0 0 44 0l188-188a31 31 0 0 0 0-44l-188-188a31 31 0 0 0-44 45l166 165-166 165a31 31 0 0 0 0 45z m-509-210a31 31 0 0 0 31 31h657a31 31 0 0 0 0-62h-657a31 31 0 0 0-31 31z" horiz-adv-x="1000" />

<glyph glyph-name="arrow-up-circle-fill" unicode="&#xe838;" d="M1000 350a500 500 0 1 0-1000 0 500 500 0 0 0 1000 0z m-665-22a31 31 0 1 0-45 44l188 188a31 31 0 0 0 44 0l188-188a31 31 0 0 0-45-44l-134 134v-299a31 31 0 0 0-62 0v299l-134-134z" horiz-adv-x="1000" />

<glyph glyph-name="arrow-up-left-circle" unicode="&#xe839;" d="M500-88a438 438 0 1 1 0 876 438 438 0 0 1 0-876z m0-62a500 500 0 1 1 0 1000 500 500 0 0 1 0-1000z m-156 688h250a31 31 0 0 0 0-63h-175l259-259a31 31 0 0 0-44-44l-259 259v-175a31 31 0 0 0-62 0v250a31 31 0 0 0 31 32z" horiz-adv-x="1000" />

<glyph glyph-name="arrow-up-left-square-fill" unicode="&#xe83a;" d="M125 850a125 125 0 0 1-125-125v-750a125 125 0 0 1 125-125h750a125 125 0 0 1 125 125v750a125 125 0 0 1-125 125h-750z m469-312h-250a31 31 0 0 1-31-32v-250a31 31 0 0 1 62 0v175l259-259a31 31 0 0 1 44 44l-259 259h175a31 31 0 0 1 0 63z" horiz-adv-x="1000" />

<glyph glyph-name="arrow-up-left-circle-fill" unicode="&#xe83b;" d="M1000 350a500 500 0 1 0-1000 0 500 500 0 0 0 1000 0z m-406 188h-250a31 31 0 0 1-31-32v-250a31 31 0 0 1 62 0v175l259-259a31 31 0 0 1 44 44l-259 259h175a31 31 0 0 1 0 63z" horiz-adv-x="1000" />

<glyph glyph-name="arrow-up-left-square" unicode="&#xe83c;" d="M875 788h-750a63 63 0 0 1-62-63v-750a63 63 0 0 1 62-63h750a63 63 0 0 1 63 63v750a63 63 0 0 1-63 63z m-750 62a125 125 0 0 1-125-125v-750a125 125 0 0 1 125-125h750a125 125 0 0 1 125 125v750a125 125 0 0 1-125 125h-750z m219-312h250a31 31 0 0 0 0-63h-175l259-259a31 31 0 0 0-44-44l-259 259v-175a31 31 0 0 0-62 0v250a31 31 0 0 0 31 32z" horiz-adv-x="1000" />

<glyph glyph-name="arrow-up-left" unicode="&#xe83d;" d="M156 600a31 31 0 0 0 32 31h312a31 31 0 0 0 0-62h-281v-281a31 31 0 0 0-63 0v312z m9 22a31 31 0 0 0 45 0l562-562a31 31 0 0 0-44-45l-563 563a31 31 0 0 0 0 44z" horiz-adv-x="1000" />

<glyph glyph-name="arrow-up-right-circle-fill" unicode="&#xe83e;" d="M1000 350a500 500 0 1 0-1000 0 500 500 0 0 0 1000 0z m-594 188h250a31 31 0 0 0 32-32v-250a31 31 0 0 0-63 0v175l-259-259a31 31 0 0 0-44 44l259 259h-175a31 31 0 0 0 0 63z" horiz-adv-x="1000" />

<glyph glyph-name="arrow-up-right-circle" unicode="&#xe83f;" d="M500-88a438 438 0 1 1 0 876 438 438 0 0 1 0-876z m0-62a500 500 0 1 1 0 1000 500 500 0 0 1 0-1000z m156 688h-250a31 31 0 0 1 0-63h175l-259-259a31 31 0 0 1 44-44l259 259v-175a31 31 0 0 1 63 0v250a31 31 0 0 1-32 32z" horiz-adv-x="1000" />

<glyph glyph-name="arrow-up-circle" unicode="&#xe840;" d="M500-88a438 438 0 1 1 0 876 438 438 0 0 1 0-876z m0-62a500 500 0 1 1 0 1000 500 500 0 0 1 0-1000z m-210 478a31 31 0 0 1 45 0l165 165 165-165a31 31 0 0 1 45 44l-188 188a31 31 0 0 1-44 0l-188-188a31 31 0 0 1 0-44z m210-197a31 31 0 0 1 31 32v312a31 31 0 0 1-62 0v-312a31 31 0 0 1 31-32z" horiz-adv-x="1000" />

<glyph glyph-name="arrow-up-right-square-fill" unicode="&#xe841;" d="M125 850a125 125 0 0 1-125-125v-750a125 125 0 0 1 125-125h750a125 125 0 0 1 125 125v750a125 125 0 0 1-125 125h-750z m281-312h250a31 31 0 0 0 32-32v-250a31 31 0 0 0-63 0v175l-259-259a31 31 0 0 0-44 44l259 259h-175a31 31 0 0 0 0 63z" horiz-adv-x="1000" />

<glyph glyph-name="arrow-up-right-square" unicode="&#xe842;" d="M875 788h-750a63 63 0 0 1-62-63v-750a63 63 0 0 1 62-63h750a63 63 0 0 1 63 63v750a63 63 0 0 1-63 63z m-750 62a125 125 0 0 1-125-125v-750a125 125 0 0 1 125-125h750a125 125 0 0 1 125 125v750a125 125 0 0 1-125 125h-750z m531-312h-250a31 31 0 0 1 0-63h175l-259-259a31 31 0 0 1 44-44l259 259v-175a31 31 0 0 1 63 0v250a31 31 0 0 1-32 32z" horiz-adv-x="1000" />

<glyph glyph-name="arrow-up-right" unicode="&#xe843;" d="M406 600a31 31 0 0 0 32 31h312a31 31 0 0 0 31-31v-312a31 31 0 0 0-62 0v281h-281a31 31 0 0 0-32 31z m366 22a31 31 0 0 0 0-44l-562-563a31 31 0 0 0-45 45l563 562a31 31 0 0 0 44 0z" horiz-adv-x="1000" />

<glyph glyph-name="arrow-up-square-fill" unicode="&#xe844;" d="M125 850a125 125 0 0 1-125-125v-750a125 125 0 0 1 125-125h750a125 125 0 0 1 125 125v750a125 125 0 0 1-125 125h-750z m210-522a31 31 0 1 0-45 44l188 188a31 31 0 0 0 44 0l188-188a31 31 0 0 0-45-44l-134 134v-299a31 31 0 0 0-62 0v299l-134-134z" horiz-adv-x="1000" />

<glyph glyph-name="arrow-up-square" unicode="&#xe845;" d="M875 788h-750a63 63 0 0 1-62-63v-750a63 63 0 0 1 62-63h750a63 63 0 0 1 63 63v750a63 63 0 0 1-63 63z m-750 62a125 125 0 0 1-125-125v-750a125 125 0 0 1 125-125h750a125 125 0 0 1 125 125v750a125 125 0 0 1-125 125h-750z m165-522a31 31 0 0 1 45 0l165 165 165-165a31 31 0 0 1 45 44l-188 188a31 31 0 0 1-44 0l-188-188a31 31 0 0 1 0-44z m210-197a31 31 0 0 1 31 32v312a31 31 0 0 1-62 0v-312a31 31 0 0 1 31-32z" horiz-adv-x="1000" />

<glyph glyph-name="arrow-up" unicode="&#xe846;" d="M500 631a31 31 0 0 0 31-31v-562a31 31 0 0 0-62 0v562a31 31 0 0 0 31 31z m-22 54a31 31 0 0 0 44 0l188-188a31 31 0 0 0-45-44l-165 165-165-165a31 31 0 1 0-45 44l188 188z" horiz-adv-x="1000" />

<glyph glyph-name="arrow-up-short" unicode="&#xe847;" d="M500 506a31 31 0 0 0 31-31v-312a31 31 0 0 0-62 0v312a31 31 0 0 0 31 31z m-22 54a31 31 0 0 0 44 0l188-188a31 31 0 0 0-45-44l-165 165-165-165a31 31 0 1 0-45 44l188 188z" horiz-adv-x="1000" />

<glyph glyph-name="arrows-angle-contract" unicode="&#xe848;" d="M594 723a31 31 0 0 0 31-31v-219h219a31 31 0 0 0 0-63h-250a31 31 0 0 0-31 32v250a31 31 0 0 0 31 31z m303 24a31 31 0 0 0 0-44l-281-281a31 31 0 1 0-44 44l281 281a31 31 0 0 0 44 0z m-469-469a31 31 0 0 0 0-44l-281-281a31 31 0 0 0-44 44l281 281a31 31 0 0 0 44 0z m-301-22a31 31 0 0 0 32 32h250a31 31 0 0 0 31-32v-250a31 31 0 0 0-63 0v219h-218a31 31 0 0 0-32 31z" horiz-adv-x="1000" />

<glyph glyph-name="arrows-angle-expand" unicode="&#xe849;" d="M94 223a31 31 0 0 0 31-31v-219h219a31 31 0 0 0 0-63h-250a31 31 0 0 0-31 31v251a31 31 0 0 0 31 31z m303 24a31 31 0 0 0 0-44l-281-281a31 31 0 0 0-44 44l281 281a31 31 0 0 0 44 0z m531 531a31 31 0 0 0 0-44l-281-281a31 31 0 0 0-44 44l281 281a31 31 0 0 0 44 0z m-301-22a31 31 0 0 0 32 32h250a31 31 0 0 0 31-32v-250a31 31 0 1 0-63 0v219h-218a31 31 0 0 0-32 31z" horiz-adv-x="1000" />

<glyph glyph-name="arrows-collapse" unicode="&#xe84a;" d="M125 350a31 31 0 0 0 31 31h688a31 31 0 0 0 0-62h-688a31 31 0 0 0-31 31z m375 438a31 31 0 0 0 31-32v-281a31 31 0 0 0-62 0v281a31 31 0 0 0 31 32z m147-166a31 31 0 0 0 0-44l-125-125a31 31 0 0 0-44 0l-125 125a31 31 0 1 0 44 44l103-103 103 103a31 31 0 0 0 44 0z m-147-710a31 31 0 0 1 31 32v281a31 31 0 0 1-62 0v-281a31 31 0 0 1 31-32z m147 166a31 31 0 0 1 0 44l-125 125a31 31 0 0 1-44 0l-125-125a31 31 0 0 1 44-44l103 103 103-103a31 31 0 0 1 44 0z" horiz-adv-x="1000" />

<glyph glyph-name="arrows-expand" unicode="&#xe84b;" d="M125 350a31 31 0 0 0 31 31h688a31 31 0 0 0 0-62h-688a31 31 0 0 0-31 31z m375 94a31 31 0 0 1 31 31v281a31 31 0 0 1-62 0v-281a31 31 0 0 1 31-31z m147 165a31 31 0 0 1 0 44l-125 125a31 31 0 0 1-44 0l-125-125a31 31 0 1 1 44-44l103 103 103-103a31 31 0 0 1 44 0z m-147-353a31 31 0 0 0 31-31v-281a31 31 0 0 0-62 0v281a31 31 0 0 0 31 31z m147-165a31 31 0 0 0 0-44l-125-125a31 31 0 0 0-44 0l-125 125a31 31 0 0 0 44 44l103-103 103 103a31 31 0 0 0 44 0z" horiz-adv-x="1000" />

<glyph glyph-name="arrows-fullscreen" unicode="&#xe84c;" d="M92 192a31 31 0 0 0 31-32v-187h187a31 31 0 0 0 0-63h-218a31 31 0 0 0-32 31v219a31 31 0 0 0 32 32z m281 33a31 31 0 0 0 0-44l-259-259a31 31 0 0 0-45 44l260 259a31 31 0 0 0 44 0z m553 553a31 31 0 0 0 0-44l-259-259a31 31 0 0 0-44 44l259 259a31 31 0 0 0 44 0z m-270-22a31 31 0 0 0 32 32h218a31 31 0 0 0 32-32v-218a31 31 0 0 0-63 0v187h-187a31 31 0 0 0-32 31z m250-562a31 31 0 0 1-31-31v-188h-187a31 31 0 0 1 0-63h218a31 31 0 0 1 32 32v219a31 31 0 0 1-32 31z m-281 33a31 31 0 0 1 0-44l259-259a31 31 0 0 1 44 44l-259 259a31 31 0 0 1-44 0z m-551 551a31 31 0 0 1 0-44l259-259a31 31 0 0 1 44 44l-259 259a31 31 0 0 1-44 0z m270-22a31 31 0 0 1-31 32h-219a31 31 0 0 1-31-32v-218a31 31 0 0 1 62 0v187h188a31 31 0 0 1 31 31z" horiz-adv-x="1000" />

<glyph glyph-name="arrows-move" unicode="&#xe84d;" d="M406 350a31 31 0 0 1-31 31h-281a31 31 0 0 1 0-62h281a31 31 0 0 1 31 31z m-165 147a31 31 0 0 1-44 0l-125-125a31 31 0 0 1 0-44l125-125a31 31 0 0 1 44 44l-103 103 103 103a31 31 0 0 1 0 44z m353-147a31 31 0 0 0 31 31h281a31 31 0 0 0 0-62h-281a31 31 0 0 0-31 31z m165 147a31 31 0 0 0 44 0l125-125a31 31 0 0 0 0-44l-125-125a31 31 0 0 0-44 44l103 103-103 103a31 31 0 0 0 0 44z m-259-241a31 31 0 0 1-31-31v-281a31 31 0 0 1 62 0v281a31 31 0 0 1-31 31z m-147-165a31 31 0 0 1 0-44l125-125a31 31 0 0 1 44 0l125 125a31 31 0 0 1-44 44l-103-103-103 103a31 31 0 0 1-44 0z m147 353a31 31 0 0 0-31 31v281a31 31 0 0 0 62 0v-281a31 31 0 0 0-31-31z m-147 165a31 31 0 0 0 0 44l125 125a31 31 0 0 0 44 0l125-125a31 31 0 0 0-44-44l-103 103-103-103a31 31 0 0 0-44 0z" horiz-adv-x="1000" />

<glyph glyph-name="aspect-ratio-fill" unicode="&#xe84e;" d="M94 725a94 94 0 0 1-94-94v-562a94 94 0 0 1 94-94h812a94 94 0 0 1 94 94v562a94 94 0 0 1-94 94h-812z m62-125a31 31 0 0 1-31-31v-188a31 31 0 0 1 63 0v157h156a31 31 0 0 1 0 62h-188z m688-500a31 31 0 0 1 31 31v188a31 31 0 0 1-62 0v-156h-157a31 31 0 0 1 0-63h188z" horiz-adv-x="1000" />

<glyph glyph-name="asterisk" unicode="&#xe84f;" d="M500 850a63 63 0 0 0 63-62v-330l285 165a63 63 0 1 0 62-108l-285-165 285-165a63 63 0 1 0-62-108l-285 165v-330a63 63 0 1 0-125 0v330l-286-165a63 63 0 1 0-62 108l285 165-285 165a63 63 0 0 0 62 108l286-165v330a63 63 0 0 0 62 62z" horiz-adv-x="1000" />

<glyph glyph-name="at" unicode="&#xe850;" d="M819 399c0 185-140 314-342 314-210 0-353-145-353-356 0-219 139-357 360-357 54 0 105 8 144 21v54c-27-13-85-21-143-21-183 0-301 118-301 300 0 178 120 305 287 305 171 0 288-105 288-259 0-106-35-174-89-174-30 0-48 18-48 48v251h-64v-52h-7c-17 37-55 60-100 60-88 0-149-73-149-177 0-108 60-181 149-181 50 0 88 24 107 68h7c5-42 44-72 94-72 98 0 160 88 160 228z m-448-44c0 74 33 119 91 119 58 0 95-46 95-119s-38-120-96-120c-56 0-90 45-90 120z" horiz-adv-x="1000" />

<glyph glyph-name="award-fill" unicode="&#xe851;" d="M500 850l104-54 116-18 53-105 84-82-19-116 19-116-84-82-53-105-116-18-104-54-104 54-116 18-53 105-84 82 20 116-20 116 84 82 53 105 116 18 104 54z m-250-737v-263l250 62 250-62v263l-126-19-124-64-124 64-126 19z" horiz-adv-x="1000" />

<glyph glyph-name="award" unicode="&#xe852;" d="M604 796l-104 54-104-54-116-18-53-105-84-82 20-116-20-116 84-82 53-105 116-18 104-54 104 54 116 18 53 105 84 82-19 116 19 116-84 82-53 105-116 18z m75-75l-94 15-85 44-85-44-94-15-43-85-68-67 16-94-16-94 68-67 43-85 94-15 85-44 85 44 94 15 43 85 68 67-16 94 16 94-68 67-43 85z m-429-608v-263l250 62 250-62v263l-126-19-124-64-124 64-126 19z" horiz-adv-x="1000" />

<glyph glyph-name="back" unicode="&#xe853;" d="M0 725a125 125 0 0 0 125 125h500a125 125 0 0 0 125-125v-125h125a125 125 0 0 0 125-125v-500a125 125 0 0 0-125-125h-500a125 125 0 0 0-125 125v125h-125a125 125 0 0 0-125 125v500z m125 63a63 63 0 0 1-62-63v-500a63 63 0 0 1 62-62h500a63 63 0 0 1 63 62v500a63 63 0 0 1-63 63h-500z" horiz-adv-x="1000" />

<glyph glyph-name="backspace-fill" unicode="&#xe854;" d="M980 663a125 125 0 0 1-125 125h-442a125 125 0 0 1-95-44l-303-353a63 63 0 0 1 0-82l303-353a125 125 0 0 1 95-44h442a125 125 0 0 1 125 126v625z m-616-179a31 31 0 1 0 45 44l134-134 134 134a31 31 0 1 0 44-44l-134-134 134-134a31 31 0 0 0-44-44l-134 134-134-134a31 31 0 0 0-45 44l135 134-135 134z" horiz-adv-x="1000" />

<glyph glyph-name="backspace-reverse-fill" unicode="&#xe855;" d="M0 663a125 125 0 0 0 125 125h443a125 125 0 0 0 94-44l303-353a63 63 0 0 0 0-82l-302-353a125 125 0 0 0-95-44h-443a125 125 0 0 0-125 126v625z m616-179a31 31 0 0 1-44 44l-134-134-135 134a31 31 0 1 1-44-44l134-134-134-134a31 31 0 0 1 44-44l135 134 134-134a31 31 0 0 1 44 44l-134 134 134 134z" horiz-adv-x="1000" />

<glyph glyph-name="backspace-reverse" unicode="&#xe856;" d="M568 725h-443a63 63 0 0 1-62-62v-625a63 63 0 0 1 62-63h443a63 63 0 0 1 47 22l303 353-303 353a63 63 0 0 1-47 22z m-443 63a125 125 0 0 1-125-125v-625a125 125 0 0 1 125-126h443a125 125 0 0 1 94 44l303 353a63 63 0 0 1 0 82l-302 353a125 125 0 0 1-95 44h-443z m491-260a31 31 0 0 0 0-44l-313-312a31 31 0 0 0-44 44l313 312a31 31 0 0 0 44 0z m-357 0a31 31 0 0 1 0-44l313-312a31 31 0 0 1 44 44l-313 312a31 31 0 0 1-44 0z" horiz-adv-x="1000" />

<glyph glyph-name="backspace" unicode="&#xe857;" d="M413 725h442a63 63 0 0 0 63-62v-625a63 63 0 0 0-63-63h-442a63 63 0 0 0-48 22l-302 353 302 353a63 63 0 0 0 48 22z m442 63a125 125 0 0 0 125-125v-625a125 125 0 0 0-125-126h-442a125 125 0 0 0-95 44l-303 353a63 63 0 0 0 0 82l303 353a125 125 0 0 0 95 44h442z m-491-260a31 31 0 0 1 0-44l313-312a31 31 0 0 1 44 44l-312 312a31 31 0 0 1-45 0z m357 0a31 31 0 0 0 0-44l-312-312a31 31 0 0 0-45 44l313 312a31 31 0 0 0 44 0z" horiz-adv-x="1000" />

<glyph glyph-name="badge-4k-fill" unicode="&#xe858;" d="M224 294v-2h114v189h-4a2924 2924 0 0 1-110-187z m-99 431a125 125 0 0 1-125-125v-500a125 125 0 0 1 125-125h750a125 125 0 0 1 125 125v500a125 125 0 0 1-125 125h-750z m148-232l27 44h107v-245h46v-60h-46v-69h-69v69h-182v61c36 67 77 134 117 200z m483 44h82l-134-161 140-213h-89l-105 164-39-44v-120h-74v374h74v-167h4l141 168z" horiz-adv-x="1000" />

<glyph glyph-name="badge-4k" unicode="&#xe859;" d="M300 537c-49-81-100-162-144-244v-61h182v-69h69v69h46v60h-46v245h-107z m-76-245v2a2924 2924 0 0 0 110 187h4v-189h-114z m614 245h-82l-141-167h-4v168h-74v-375h74v120l39 44 105-164h89l-140 213 134 161z m37 126h-750a63 63 0 0 1-62-63v-500a63 63 0 0 1 62-62h750a63 63 0 0 1 63 62v500a63 63 0 0 1-63 63z m-750 62a125 125 0 0 1-125-125v-500a125 125 0 0 1 125-125h750a125 125 0 0 1 125 125v500a125 125 0 0 1-125 125h-750z" horiz-adv-x="1000" />

<glyph glyph-name="badge-8k-fill" unicode="&#xe85a;" d="M244 437c0-32 25-54 59-54 34 0 59 22 59 54s-25 53-59 53c-34 0-59-21-59-53z m-12-167c0-36 31-61 71-61 41 0 72 25 72 61s-31 63-72 63c-40 0-71-26-71-63z m-107 455a125 125 0 0 1-125-125v-500a125 125 0 0 1 125-125h750a125 125 0 0 1 125 125v500a125 125 0 0 1-125 125h-750z m323-459c0-65-58-111-146-111-88 0-144 45-144 111 0 59 44 86 78 93v3c-31 10-63 35-63 83 0 58 52 100 130 100 78 0 130-42 130-100 0-48-32-73-63-83v-3c34-7 78-34 78-93z m308 272h82l-134-162 140-213h-89l-105 164-39-44v-120h-74v375h74v-168h4l141 168z" horiz-adv-x="1000" />

<glyph glyph-name="badge-8k" unicode="&#xe85b;" d="M302 155c88 0 146 46 146 111 0 59-44 86-78 93v3c31 10 63 35 63 83 0 58-52 100-130 100-78 0-130-42-130-100 0-48 32-73 63-83v-3c-34-7-78-34-78-93 0-66 56-111 144-111z m1 228c-34 0-59 22-59 54s25 53 59 53c34 0 59-21 59-53 0-32-25-54-59-54z m0-174c-40 0-71 25-71 61s31 63 71 63c41 0 72-26 72-63s-31-61-72-61z m535 329h-82l-141-168h-4v168h-74v-375h74v120l39 44 104-164h90l-140 213 134 162z m37 125h-750a63 63 0 0 1-62-63v-500a63 63 0 0 1 62-62h750a63 63 0 0 1 63 62v500a63 63 0 0 1-63 63z m-750 62a125 125 0 0 1-125-125v-500a125 125 0 0 1 125-125h750a125 125 0 0 1 125 125v500a125 125 0 0 1-125 125h-750z" horiz-adv-x="1000" />

<glyph glyph-name="badge-cc-fill" unicode="&#xe85c;" d="M125 725a125 125 0 0 1-125-125v-500a125 125 0 0 1 125-125h750a125 125 0 0 1 125 125v500a125 125 0 0 1-125 125h-750z m189-250c-52 0-82-40-82-110v-46c0-69 30-108 82-108 43 0 71 27 74 66h72v-8c-4-71-64-121-146-121-101 0-158 65-158 171v47c0 106 57 172 158 172 82 0 143-51 146-125v-7h-72c-3 40-31 69-74 69z m384 0c-52 0-82-40-82-110v-46c0-69 30-108 82-108 43 0 71 27 74 66h72v-8c-4-71-64-121-147-121-100 0-157 65-157 171v47c0 106 57 172 157 172 83 0 144-51 147-125v-7h-72c-3 40-31 69-74 69z" horiz-adv-x="1000" />

<glyph glyph-name="badge-cc" unicode="&#xe85d;" d="M232 365c0 70 30 110 82 110 43 0 71-29 74-69h72v7c-3 74-64 125-146 125-101 0-158-66-158-172v-47c0-106 57-171 158-171 82 0 142 50 146 121v8h-72c-3-39-31-66-74-66-52 0-82 39-82 108v46z m384 0c0 70 30 110 82 110 43 0 71-29 74-69h72v7c-4 74-64 125-147 125-100 0-157-66-157-172v-47c0-106 57-171 157-171 83 0 143 50 147 121v8h-72c-3-39-31-66-74-66-53 0-82 39-82 108v46z m259 298h-750a63 63 0 0 1-62-63v-500a63 63 0 0 1 62-62h750a63 63 0 0 1 63 62v500a63 63 0 0 1-63 63z m-750 62a125 125 0 0 1-125-125v-500a125 125 0 0 1 125-125h750a125 125 0 0 1 125 125v500a125 125 0 0 1-125 125h-750z" horiz-adv-x="1000" />

<glyph glyph-name="badge-hd-fill" unicode="&#xe85e;" d="M658 477h-53v-254h53c70 0 102 42 102 127 0 84-32 127-102 127z m-533 248a125 125 0 0 1-125-125v-500a125 125 0 0 1 125-125h750a125 125 0 0 1 125 125v500a125 125 0 0 1-125 125h-750z m337-188v-374h-74v160h-158v-160h-74v374h74v-152h158v153h74z m69-374v374h137c114 0 168-68 168-186 0-119-55-188-168-188h-137z" horiz-adv-x="1000" />

<glyph glyph-name="badge-hd" unicode="&#xe85f;" d="M875 663h-750a63 63 0 0 1-62-63v-500a63 63 0 0 1 62-62h750a63 63 0 0 1 63 62v500a63 63 0 0 1-63 63z m-750 62a125 125 0 0 1-125-125v-500a125 125 0 0 1 125-125h750a125 125 0 0 1 125 125v500a125 125 0 0 1-125 125h-750z m337-562v374h-74v-152h-158v153h-74v-375h74v160h158v-160h74z m69 374v-374h137c113 0 168 69 168 188 0 118-54 186-168 186h-137z m74-60h53c70 0 102-43 102-127 0-85-32-127-102-127h-53v254z" horiz-adv-x="1000" />

<glyph glyph-name="aspect-ratio" unicode="&#xe860;" d="M0 631a94 94 0 0 0 94 94h812a94 94 0 0 0 94-94v-562a94 94 0 0 0-94-94h-812a94 94 0 0 0-94 94v562z m94 32a31 31 0 0 1-31-32v-562a31 31 0 0 1 31-31h812a31 31 0 0 1 32 31v562a31 31 0 0 1-32 32h-812z m31-94a31 31 0 0 0 31 31h188a31 31 0 0 0 0-62h-156v-157a31 31 0 0 0-63 0v188z m750-438a31 31 0 0 0-31-31h-188a31 31 0 0 0 0 63h157v156a31 31 0 0 0 62 0v-188z" horiz-adv-x="1000" />

<glyph glyph-name="badge-tm-fill" unicode="&#xe861;" d="M125 725a125 125 0 0 1-125-125v-500a125 125 0 0 1 125-125h750a125 125 0 0 1 125 125v500a125 125 0 0 1-125 125h-750z m206-250v-312h-74v312h-107v63h288v-63h-107z m212-63v-249h-66v374h76l107-243h2l107 243h75v-374h-67v249h-4l-89-203h-48l-89 203h-4z" horiz-adv-x="1000" />

<glyph glyph-name="badge-tm" unicode="&#xe862;" d="M331 163v312h107v63h-288v-63h107v-312h74z m212 0v249h4l89-203h48l89 203h4v-249h67v374h-75l-107-243h-3l-106 243h-76v-374h66z m332 500h-750a63 63 0 0 1-62-63v-500a63 63 0 0 1 62-62h750a63 63 0 0 1 63 62v500a63 63 0 0 1-63 63z m-750 62a125 125 0 0 1-125-125v-500a125 125 0 0 1 125-125h750a125 125 0 0 1 125 125v500a125 125 0 0 1-125 125h-750z" horiz-adv-x="1000" />

<glyph glyph-name="badge-vo-fill" unicode="&#xe863;" d="M769 325v49c0 73-36 109-86 109-49 0-85-36-85-109v-49c0-72 36-108 85-108 50 0 86 36 86 108z m-644 400a125 125 0 0 1-125-125v-500a125 125 0 0 1 125-125h750a125 125 0 0 1 125 125v500a125 125 0 0 1-125 125h-750z m719-351v-48c0-106-60-171-161-171-100 0-160 65-160 171v48c0 106 60 171 160 171 101 0 161-65 161-171z m-473-211h-89l-126 374h86l84-294h4l83 294h83l-125-374z" horiz-adv-x="1000" />

<glyph glyph-name="badge-vo" unicode="&#xe864;" d="M282 163h89l124 374h-82l-83-294h-4l-84 294h-86l126-374z m562 163v48c0 106-60 171-161 171-100 0-160-65-160-171v-48c0-106 60-171 160-171 101 0 161 65 161 171z m-75 48v-49c0-72-36-108-86-108-49 0-85 36-85 108v49c0 73 36 109 85 109 50 0 86-36 86-109z m106 289h-750a63 63 0 0 1-62-63v-500a63 63 0 0 1 62-62h750a63 63 0 0 1 63 62v500a63 63 0 0 1-63 63z m-750 62a125 125 0 0 1-125-125v-500a125 125 0 0 1 125-125h750a125 125 0 0 1 125 125v500a125 125 0 0 1-125 125h-750z" horiz-adv-x="1000" />

<glyph glyph-name="bag-check" unicode="&#xe865;" d="M875 538h-750v-563a63 63 0 0 1 63-63h625a63 63 0 0 1 62 63v563z m-812 62v-625a125 125 0 0 1 125-125h625a125 125 0 0 1 125 125v625h-875z m437 156a156 156 0 0 1-156-156h-63a219 219 0 1 0 438 0h-63a156 156 0 0 1-156 156z m178-384a31 31 0 0 0 0-44l-187-188a31 31 0 0 0-44 0l-94 94a31 31 0 1 0 44 44l72-71 165 165a31 31 0 0 0 44 0z" horiz-adv-x="1000" />

<glyph glyph-name="bag-dash" unicode="&#xe866;" d="M875 538h-750v-563a63 63 0 0 1 63-63h625a63 63 0 0 1 62 63v563z m-812 62v-625a125 125 0 0 1 125-125h625a125 125 0 0 1 125 125v625h-875z m437 156a156 156 0 0 1-156-156h-63a219 219 0 1 0 438 0h-63a156 156 0 0 1-156 156z m-156-531a31 31 0 0 0 31 31h250a31 31 0 0 0 0-62h-250a31 31 0 0 0-31 31z" horiz-adv-x="1000" />

<glyph glyph-name="bag-fill" unicode="&#xe867;" d="M63 600h875v-625a125 125 0 0 0-125-125h-625a125 125 0 0 0-125 125v625z m437 156a156 156 0 0 1-156-156h-63a219 219 0 1 0 438 0h-63a156 156 0 0 1-156 156z" horiz-adv-x="1000" />

<glyph glyph-name="bag-plus" unicode="&#xe868;" d="M875 538h-750v-563a63 63 0 0 1 63-63h625a63 63 0 0 1 62 63v563z m-812 62v-625a125 125 0 0 1 125-125h625a125 125 0 0 1 125 125v625h-875z m437 156a156 156 0 0 1-156-156h-63a219 219 0 1 0 438 0h-63a156 156 0 0 1-156 156z m0-375a31 31 0 0 0 31-31v-125a31 31 0 0 0-31-31h-125a31 31 0 0 0 0 62h94v94a31 31 0 0 0 31 31z m-31-156a31 31 0 0 0 31 31h125a31 31 0 0 0 0-62h-94v-94a31 31 0 0 0-62 0v125z" horiz-adv-x="1000" />

<glyph glyph-name="bag" unicode="&#xe869;" d="M875 538h-750v-563a63 63 0 0 1 63-63h625a63 63 0 0 1 62 63v563z m-812 62v-625a125 125 0 0 1 125-125h625a125 125 0 0 1 125 125v625h-875z m437 156a156 156 0 0 1-156-156h-63a219 219 0 1 0 438 0h-63a156 156 0 0 1-156 156z" horiz-adv-x="1000" />

<glyph glyph-name="bar-chart-line" unicode="&#xe86c;" d="M250 163h-125v-188h125v188z m313 250h-125v-438h125v438z m312 312h-125v-750h125v750z m-125 63a63 63 0 0 1-62-63v-750a63 63 0 0 1 62-63h125a63 63 0 0 1 63 63v750a63 63 0 0 1-63 63h-125z m-375-375a63 63 0 0 0 63 62h125a63 63 0 0 0 62-62v-438a63 63 0 0 0-62-63h-125a63 63 0 0 0-63 63v438z m-312-250a63 63 0 0 0 62 62h125a63 63 0 0 0 63-62v-188a63 63 0 0 0-63-63h-125a63 63 0 0 0-62 63v188z m-63-219a31 31 0 0 0 31 31h938a31 31 0 0 0 0-63h-938a31 31 0 0 0-31 32z" horiz-adv-x="1000" />

<glyph glyph-name="bar-chart" unicode="&#xe86e;" d="M250 163h-125v-188h125v188z m313 250h-125v-438h125v438z m312 312h-125v-750h125v750z m-125 63a63 63 0 0 1-62-63v-750a63 63 0 0 1 62-63h125a63 63 0 0 1 63 63v750a63 63 0 0 1-63 63h-125z m-375-375a63 63 0 0 0 63 62h125a63 63 0 0 0 62-62v-438a63 63 0 0 0-62-63h-125a63 63 0 0 0-63 63v438z m-312-250a63 63 0 0 0 62 62h125a63 63 0 0 0 63-62v-188a63 63 0 0 0-63-63h-125a63 63 0 0 0-62 63v188z" horiz-adv-x="1000" />

<glyph glyph-name="basket-fill" unicode="&#xe86f;" d="M317 772a31 31 0 0 0 54-32l-160-265h578l-160 265a31 31 0 1 0 54 32l178-297h108a31 31 0 0 0 31-31v-125a31 31 0 0 0-31-31h-31v-313a125 125 0 0 0-125-125h-625a125 125 0 0 0-125 125v313h-32a31 31 0 0 0-31 31v125a31 31 0 0 0 31 31h108l178 297z m-98-578a31 31 0 0 1-63 0v-188a31 31 0 0 1 63 0v188z m156 0a31 31 0 0 1-62 0v-188a31 31 0 0 1 62 0v188z m156 0a31 31 0 0 1-62 0v-188a31 31 0 0 1 62 0v188z m157 0a31 31 0 0 1-63 0v-188a31 31 0 0 1 63 0v188z m156 0a31 31 0 0 1-63 0v-188a31 31 0 0 1 63 0v188z" horiz-adv-x="1000" />

<glyph glyph-name="basket" unicode="&#xe870;" d="M640 783a31 31 0 0 0 43-11l188-312a31 31 0 1 0-54-32l-188 312a31 31 0 0 0 11 43z m-280 0a31 31 0 0 1-43-11l-188-312a31 31 0 1 1 54-32l188 312a31 31 0 0 1-11 43z m-297-370v-63h875v63h-875z m-32 62a31 31 0 0 1-31-31v-125a31 31 0 0 1 31-31h938a31 31 0 0 1 31 31v125a31 31 0 0 1-31 31h-938z m844-187h-750v-313a63 63 0 0 1 63-63h625a63 63 0 0 1 62 63v313z m-750 62a63 63 0 0 1-62-62v-313a125 125 0 0 1 125-125h625a125 125 0 0 1 125 125v313a63 63 0 0 1-63 62h-750z m125-125a31 31 0 0 0 31-31v-188a31 31 0 1 0-62 0v188a31 31 0 0 0 31 31z m125 0a31 31 0 0 0 31-31v-188a31 31 0 1 0-62 0v188a31 31 0 0 0 31 31z m125 0a31 31 0 0 0 31-31v-188a31 31 0 1 0-62 0v188a31 31 0 0 0 31 31z m125 0a31 31 0 0 0 31-31v-188a31 31 0 1 0-62 0v188a31 31 0 0 0 31 31z m125 0a31 31 0 0 0 31-31v-188a31 31 0 1 0-62 0v188a31 31 0 0 0 31 31z" horiz-adv-x="1000" />

<glyph glyph-name="basket2-fill" unicode="&#xe871;" d="M707 785a31 31 0 0 0 41-17l125-313a31 31 0 1 0-58-23l-125 313a31 31 0 0 0 17 40z m-414 0a31 31 0 0 1-41-17l-125-313a31 31 0 1 1 58-23l125 313a31 31 0 0 1-17 40z m-199-372a31 31 0 0 1-31-38l94-438a31 31 0 0 1 31-25h625a31 31 0 0 1 30 25l94 438a31 31 0 0 1-31 38h-812z m156-188a63 63 0 0 0 125 0v-125a63 63 0 1 0-125 0v125z m188 0a63 63 0 0 0 125 0v-125a63 63 0 1 0-125 0v125z m250 63a63 63 0 0 1-63-63v-125a63 63 0 1 1 125 0v125a63 63 0 0 1-62 63z m-688 156a31 31 0 0 0 31 31h938a31 31 0 0 0 31-31v-63a31 31 0 0 0-31-31h-938a31 31 0 0 0-31 31v63z" horiz-adv-x="1000" />

<glyph glyph-name="basket2" unicode="&#xe872;" d="M69 401a31 31 0 0 0 25 12h812a31 31 0 0 0 31-38l-94-438a31 31 0 0 0-30-25h-625a31 31 0 0 0-31 25l-94 438a31 31 0 0 0 6 26z m63-51l81-375h574l81 375h-736z m575 435a31 31 0 0 0 41-17l125-313a31 31 0 1 0-58-23l-125 313a31 31 0 0 0 17 40z m-414 0a31 31 0 0 1-41-17l-125-313a31 31 0 1 1 58-23l125 313a31 31 0 0 1-17 40z m-43-560a63 63 0 0 0 125 0v-125a63 63 0 1 0-125 0v125z m188 0a63 63 0 0 0 125 0v-125a63 63 0 1 0-125 0v125z m187 0a63 63 0 0 0 125 0v-125a63 63 0 1 0-125 0v125z m-625 219a31 31 0 0 0 31 31h938a31 31 0 0 0 31-31v-63a31 31 0 0 0-31-31h-938a31 31 0 0 0-31 31v63z" horiz-adv-x="1000" />

<glyph glyph-name="basket3-fill" unicode="&#xe873;" d="M640 783a31 31 0 0 0 43-11l188-312a31 31 0 0 0-54-32l-188 312a31 31 0 0 0 11 43z m-280 0a31 31 0 0 1-43-11l-188-312a31 31 0 1 1 54-32l188 312a31 31 0 0 1-11 43z m483-846a31 31 0 0 0-30-25h-625a31 31 0 0 0-31 25l-75 351h836l-75-351z" horiz-adv-x="1000" />

<glyph glyph-name="basket3" unicode="&#xe874;" d="M640 783a31 31 0 0 0 43-11l188-312a31 31 0 1 0-54-32l-188 312a31 31 0 0 0 11 43z m-280 0a31 31 0 0 1-43-11l-188-312a31 31 0 1 1 54-32l188 312a31 31 0 0 1-11 43z m-360-339a31 31 0 0 0 31 31h938a31 31 0 0 0 31-31v-63a31 31 0 0 0-31-31h-938a31 31 0 0 0-31 31v63z m51-156c0-3 0-5 0-7l75-350a63 63 0 0 1 62-50h625a63 63 0 0 1 61 50l75 350a31 31 0 0 1 0 7h-63l-73-344h-625l-74 344h-63z" horiz-adv-x="1000" />

<glyph glyph-name="battery-charging" unicode="&#xe875;" d="M906 256a94 94 0 0 1 0 188v-188z m-307 434a31 31 0 0 0 14-37l-71-230h125a31 31 0 0 0 22-53l-333-354a31 31 0 0 0-53 31l71 230h-124a31 31 0 0 0-23 53l334 354a31 31 0 0 0 38 6z m-203-90h-271a125 125 0 0 1-125-125v-250a125 125 0 0 1 125-125h130l19 63h-149a63 63 0 0 0-62 62v250a63 63 0 0 0 62 63h212l59 62z m-118-125h-153v-250h82a94 94 0 0 0-25 148l96 102z m61-312l-19-63h115l13 14h0l46 49h-86l-5-6 2 6h-66z m85 62h-66l16 52h-124a31 31 0 0 0-23 53l50 52 87 93h86l-128-135h95a31 31 0 0 0 30-41l-23-74z m43 0h86l87 93 49 52a31 31 0 0 1-22 53h-125l16 52h-65l-10-34-13-40a31 31 0 0 1 30-41h94l-127-135z m45 313h66l19 62h-115l-59-62h86l5 5-2-5z m150 62l-19-62h107a63 63 0 0 0 63-63v-250a63 63 0 0 0-63-62h-170l-59-63h229a125 125 0 0 1 125 125v250a125 125 0 0 1-125 125h-88z m-23-375h111v124a94 94 0 0 0-15-22l-96-102z m111 210v40h-40a94 94 0 0 0 40-40z" horiz-adv-x="1000" />

<glyph glyph-name="battery-full" unicode="&#xe876;" d="M750 538h-625a63 63 0 0 1-62-63v-250a63 63 0 0 1 62-62h625a63 63 0 0 1 63 62v250a63 63 0 0 1-63 63z m-625 62a125 125 0 0 1-125-125v-250a125 125 0 0 1 125-125h625a125 125 0 0 1 125 125v250a125 125 0 0 1-125 125h-625z m0-125h625v-250h-625v250z m781-219a94 94 0 0 1 0 188v-188z" horiz-adv-x="1000" />

<glyph glyph-name="battery-half" unicode="&#xe877;" d="M750 538h-625a63 63 0 0 1-62-63v-250a63 63 0 0 1 62-62h625a63 63 0 0 1 63 62v250a63 63 0 0 1-63 63z m-625 62a125 125 0 0 1-125-125v-250a125 125 0 0 1 125-125h625a125 125 0 0 1 125 125v250a125 125 0 0 1-125 125h-625z m0-125h313v-250h-313v250z m781-219a94 94 0 0 1 0 188v-188z" horiz-adv-x="1000" />

<glyph glyph-name="battery" unicode="&#xe878;" d="M750 538h-625a63 63 0 0 1-62-63v-250a63 63 0 0 1 62-62h625a63 63 0 0 1 63 62v250a63 63 0 0 1-63 63z m-625 62a125 125 0 0 1-125-125v-250a125 125 0 0 1 125-125h625a125 125 0 0 1 125 125v250a125 125 0 0 1-125 125h-625z m781-344a94 94 0 0 1 0 188v-188z" horiz-adv-x="1000" />

<glyph glyph-name="bell-fill" unicode="&#xe879;" d="M500-150a125 125 0 0 1 125 125h-250a125 125 0 0 1 125-125z m62 931a63 63 0 1 1-124 0 313 313 0 0 1-250-306c0-69-32-375-125-437h875c-94 62-125 368-125 437 0 151-108 278-251 306z" horiz-adv-x="1000" />

<glyph glyph-name="bell" unicode="&#xe87a;" d="M500-150a125 125 0 0 1 125 125h-250a125 125 0 0 1 125-125z m0 880l-50-10a250 250 0 0 1-200-245c0-39-8-137-29-234-10-48-23-98-41-141h640c-18 43-31 93-41 141-21 97-29 195-29 234a250 250 0 0 1-200 245l-50 10z m389-630c14-28 30-50 49-62h-875c18 12 34 34 48 62 57 113 77 320 77 375 0 151 107 278 250 306a63 63 0 1 0 124 0 313 313 0 0 0 251-306c0-55 20-262 76-375z" horiz-adv-x="1000" />

<glyph glyph-name="bezier" unicode="&#xe87b;" d="M0 194a94 94 0 0 0 94 94h62a94 94 0 0 0 94-94v-63a94 94 0 0 0-94-93h-62a94 94 0 0 0-94 93v63z m94 31a31 31 0 0 1-31-31v-63a31 31 0 0 1 31-31h62a31 31 0 0 1 32 31v63a31 31 0 0 1-32 31h-62z m656-31a94 94 0 0 0 94 94h62a94 94 0 0 0 94-94v-63a94 94 0 0 0-94-93h-62a94 94 0 0 0-94 93v63z m94 31a31 31 0 0 1-31-31v-63a31 31 0 0 1 31-31h62a31 31 0 0 1 32 31v63a31 31 0 0 1-32 31h-62z m-469 344a94 94 0 0 0 94 94h62a94 94 0 0 0 94-94v-63a94 94 0 0 0-94-93h-62a94 94 0 0 0-94 93v63z m94 31a31 31 0 0 1-31-31v-63a31 31 0 0 1 31-31h62a31 31 0 0 1 32 31v63a31 31 0 0 1-32 31h-62z m-94-31h-258a63 63 0 1 1 0-63h166a407 407 0 0 1-170-218h43c8 0 16-1 23-3a345 345 0 0 0 199 199 94 94 0 0 0-3 22v63z m247-85a94 94 0 0 1 3 22v63h258a63 63 0 1 0 0-63h-166a407 407 0 0 0 170-218h-43c-8 0-15-1-23-3a345 345 0 0 1-199 199z" horiz-adv-x="1000" />

<glyph glyph-name="bezier2" unicode="&#xe87c;" d="M63 694a94 94 0 0 0 93 94h63a94 94 0 0 0 94-94v-63a94 94 0 0 0-94-93h-63a94 94 0 0 0-93 93v63z m93 31a31 31 0 0 1-31-31v-63a31 31 0 0 1 31-31h63a31 31 0 0 1 31 31v63a31 31 0 0 1-31 31h-63z m532-656a94 94 0 0 0 93 94h63a94 94 0 0 0 94-94v-63a94 94 0 0 0-94-94h-63a94 94 0 0 0-93 94v63z m93 31a31 31 0 0 1-31-31v-63a31 31 0 0 1 31-31h63a31 31 0 0 1 31 31v63a31 31 0 0 1-31 31h-63z m-358 460c-29 45-73 71-142 71v63h344v-63h-180c12-11 22-24 31-38 39-62 55-147 55-243 0-125 16-193 45-231 26-35 68-50 143-50v-63h-344v63h161a177 177 0 0 0-10 12c-42 56-57 144-57 269 0 91-16 162-46 210z m265 103a63 63 0 1 0-125 0 63 63 0 0 0 125 0z m-250-625a63 63 0 1 0-125 0 63 63 0 0 0 125 0z" horiz-adv-x="1000" />

<glyph glyph-name="bicycle" unicode="&#xe87d;" d="M188 100a125 125 0 1 1 0 250 125 125 0 0 1 0-250z m0-62a188 188 0 1 1 0 375 188 188 0 0 1 0-375z m625 62a125 125 0 1 1 0 250 125 125 0 0 1 0-250z m0-62a188 188 0 1 1 0 375 188 188 0 0 1 0-375z m-563 531a31 31 0 0 0 31 31h94a31 31 0 0 0 0-62v-32h259l24 73a31 31 0 0 0 30 21h62a31 31 0 0 0 0-62h-40l-19-59 148-237a31 31 0 1 0-53-34l-130 208-129-208a31 31 0 0 0-27-14h-312a31 31 0 0 0-27 48l152 242v54h-32a31 31 0 0 0-31 31z m94-153l-100-160h200l-100 160z m156-132l100 160h-200l100-160z" horiz-adv-x="1000" />

<glyph glyph-name="binoculars-fill" unicode="&#xe87e;" d="M281 788a94 94 0 0 1-93-94v-31h250v31a94 94 0 0 1-94 94h-63z m157-188v-62h125v62h250v-55a31 31 0 0 1 17-28l56-28a94 94 0 0 0 52-84v-367h-375v93a31 31 0 0 0 9 22l53 54v49a31 31 0 0 1-31 32h-188a31 31 0 0 1-31-32v-49l53-54a31 31 0 0 0 10-22v-93h-375v367a94 94 0 0 0 51 84l56 28a31 31 0 0 1 18 28v55h250z m-375-625v-31a94 94 0 0 1 93-94h188a94 94 0 0 1 94 94v31h-375z m500 0v-31a94 94 0 0 1 93-94h188a94 94 0 0 1 94 94v31h-375z m250 688h-250v31a94 94 0 0 0 93 94h63a94 94 0 0 0 94-94v-31z" horiz-adv-x="1000" />

<glyph glyph-name="binoculars" unicode="&#xe87f;" d="M188 694a94 94 0 0 0 93 94h63a94 94 0 0 0 94-94v-156h125v156a94 94 0 0 0 93 94h63a94 94 0 0 0 94-94v-149a31 31 0 0 1 17-28l56-28a94 94 0 0 0 52-84v-461a94 94 0 0 0-94-94h-188a94 94 0 0 0-93 94v187a31 31 0 0 0 9 22l53 54v49a31 31 0 0 1-31 32h-188a31 31 0 0 1-31-32v-49l53-54a31 31 0 0 0 10-22v-187a94 94 0 0 0-94-94h-188a94 94 0 0 0-93 94v461a94 94 0 0 0 51 84l56 28a31 31 0 0 1 18 28v149z m93 31a31 31 0 0 1-31-31v-31h125v31a31 31 0 0 1-31 31h-63z m94-125h-125v-55a94 94 0 0 0-52-84l-56-28a31 31 0 0 1-17-28v-367h250v80l-53 54a31 31 0 0 0-9 22v62a94 94 0 0 0 93 94h188a94 94 0 0 0 94-94v-62a31 31 0 0 0-10-22l-53-54v-80h250v367a31 31 0 0 1-17 28l-56 28a94 94 0 0 0-52 84v55h-125v-94a31 31 0 0 0-31-31h-188a31 31 0 0 0-31 31v94z m250 63h125v31a31 31 0 0 1-31 31h-63a31 31 0 0 1-31-31v-31z m250-688h-250v-31a31 31 0 0 1 31-32h188a31 31 0 0 1 31 32v31z m-500 0h-250v-31a31 31 0 0 1 31-32h188a31 31 0 0 1 31 32v31z" horiz-adv-x="1000" />

<glyph glyph-name="blockquote-left" unicode="&#xe880;" d="M125 631a31 31 0 0 0 31 32h688a31 31 0 0 0 0-63h-688a31 31 0 0 0-31 31z m313-187a31 31 0 0 0 31 31h375a31 31 0 0 0 0-62h-375a31 31 0 0 0-31 31z m0-188a31 31 0 0 0 31 32h375a31 31 0 0 0 0-63h-375a31 31 0 0 0-31 31z m-313-187a31 31 0 0 0 31 31h688a31 31 0 0 0 0-62h-688a31 31 0 0 0-31 31z m108 384a412 412 0 0 1-27-17 121 121 0 0 1-22-19 86 86 0 0 1-16-23c-3-8-6-18-7-31h17c15 0 27-4 36-11 8-8 13-19 13-33a44 44 0 0 0-12-29c-7-9-18-13-31-13-21 0-36 7-45 20-9 14-14 33-14 55 0 16 3 30 10 43 7 13 15 25 25 35 10 11 21 20 32 27 11 7 21 13 28 18l13-22z m136 0a412 412 0 0 1-28-17 121 121 0 0 1-22-19c-7-7-12-15-16-23a109 109 0 0 1-7-31h18c15 0 27-4 35-11 9-8 13-19 13-33a44 44 0 0 0-11-29c-8-9-18-13-32-13-21 0-36 7-45 20-9 14-13 33-13 55 0 16 3 30 10 43 7 13 15 25 25 35 10 11 20 20 32 27 11 7 20 13 28 18l13-22z" horiz-adv-x="1000" />

<glyph glyph-name="blockquote-right" unicode="&#xe881;" d="M125 631a31 31 0 0 0 31 32h688a31 31 0 0 0 0-63h-688a31 31 0 0 0-31 31z m0-187a31 31 0 0 0 31 31h375a31 31 0 0 0 0-62h-375a31 31 0 0 0-31 31z m0-188a31 31 0 0 0 31 32h375a31 31 0 0 0 0-63h-375a31 31 0 0 0-31 31z m0-187a31 31 0 0 0 31 31h688a31 31 0 0 0 0-62h-688a31 31 0 0 0-31 31z m636 384c11-7 20-12 27-17 7-5 15-11 22-19 7-7 12-15 16-23s6-18 7-31h-17c-15 0-27-4-36-11-8-8-13-19-13-33 0-10 4-20 12-29 7-9 18-13 31-13 21 0 36 7 45 20 9 14 14 33 14 55 0 16-3 30-10 43a152 152 0 0 1-25 35c-10 11-21 20-32 27-11 7-21 13-28 18l-13-22z m-136 0c12-7 21-12 28-17 7-5 14-11 21-19 8-7 13-15 17-23 3-8 5-18 7-31h-18c-15 0-27-4-35-11-9-8-13-19-13-33 0-10 4-20 11-29 8-9 18-13 32-13 21 0 36 7 45 20 9 14 13 33 13 55 0 16-3 30-10 43a152 152 0 0 1-25 35c-10 11-20 20-32 27-11 7-20 13-28 18l-13-22z" horiz-adv-x="1000" />

<glyph glyph-name="book-fill" unicode="&#xe882;" d="M954-4c21-9 46 6 46 30v668a30 30 0 0 1-17 27c-71 32-339 137-483-8-144 145-412 40-483 8a30 30 0 0 1-17-27v-668c0-24 25-39 46-30 125 51 337 97 454-21 117 118 329 72 454 21z" horiz-adv-x="1000" />

<glyph glyph-name="book-half" unicode="&#xe883;" d="M799 783c-100 20-231 23-321-67a31 31 0 0 1-9-22v-688a31 31 0 0 1 53-22c53 53 132 66 217 58 84-9 166-39 216-64a31 31 0 0 1 45 28v688a31 31 0 0 1-17 28l-14-28 14 28 0 0-1 0 0 0-3 2a786 786 0 0 1-50 21 810 810 0 0 1-130 38z m139-109v-619c-53 21-122 42-193 49-71 7-149 1-214-35v611c67 58 165 60 256 42a747 747 0 0 0 151-48z m-737 109c100 20 231 23 321-67a31 31 0 0 0 9-22v-688a31 31 0 0 0-53-22c-53 53-132 66-217 58-84-9-166-39-216-64a31 31 0 0 0-45 28v688a31 31 0 0 0 17 28l14-28-14 28 0 0 1 0 0 0a314 314 0 0 0 14 7 810 810 0 0 0 169 54z" horiz-adv-x="1000" />

<glyph glyph-name="book" unicode="&#xe884;" d="M201 783c100 20 231 23 321-67a31 31 0 0 0 9-22v-688a31 31 0 0 0-53-22c-53 53-132 66-217 58-84-9-166-39-216-64a31 31 0 0 0-45 28v688a31 31 0 0 0 17 28l14-28-14 28 0 0 1 0 0 0a314 314 0 0 0 14 7 810 810 0 0 0 169 54z m-138-109v-619c52 21 121 42 192 49 71 7 149 1 214-35v611c-67 58-165 60-256 42a747 747 0 0 1-150-48z m736 109c-100 20-231 23-321-67a31 31 0 0 1-9-22v-688a31 31 0 0 1 53-22c53 53 132 66 217 58 84-9 166-39 216-64a31 31 0 0 1 45 28v688a31 31 0 0 1-17 28l-14-28 14 28 0 0-1 0 0 0-3 2a786 786 0 0 1-50 21 810 810 0 0 1-130 38z m139-109v-619c-53 21-122 42-193 49-71 7-149 1-214-35v611c67 58 165 60 256 42a747 747 0 0 0 151-48z" horiz-adv-x="1000" />

<glyph glyph-name="bookmark-check" unicode="&#xe885;" d="M281 725a31 31 0 0 1-31-31v-692l250 167 250-167v317a31 31 0 0 0 63 0v-434l-313 209-312-209v809a94 94 0 0 0 93 94h250a31 31 0 0 0 0-63h-250z m710-9a31 31 0 0 0 0-44l-188-188a31 31 0 0 0-44 0l-94 94a31 31 0 0 0 45 44l71-72 166 166a31 31 0 0 0 44 0z" horiz-adv-x="1000" />

<glyph glyph-name="bookmark-dash" unicode="&#xe886;" d="M688 631a31 31 0 0 0 31 32h250a31 31 0 0 0 0-63h-250a31 31 0 0 0-31 31z m-407 94a31 31 0 0 1-31-31v-692l250 167 250-167v317a31 31 0 0 0 63 0v-434l-313 209-312-209v809a94 94 0 0 0 93 94h250a31 31 0 0 0 0-63h-250z" horiz-adv-x="1000" />

<glyph glyph-name="bookmark-fill" unicode="&#xe887;" d="M188 663a125 125 0 0 0 125 125h375a125 125 0 0 0 125-125v-751l-313 188-312-188v751z" horiz-adv-x="1000" />

<glyph glyph-name="bookmark-plus" unicode="&#xe888;" d="M281 725a31 31 0 0 1-31-31v-692l250 167 250-167v317a31 31 0 0 0 63 0v-434l-313 209-312-209v809a94 94 0 0 0 93 94h250a31 31 0 0 0 0-63h-250z m563 63a31 31 0 0 0 31-32v-125a31 31 0 0 0-31-31h-125a31 31 0 0 0 0 63h94v93a31 31 0 0 0 31 32z m-31-157a31 31 0 0 0 31 32h125a31 31 0 0 0 0-63h-94v-94a31 31 0 0 0-62 0v125z" horiz-adv-x="1000" />

<glyph glyph-name="bookmark" unicode="&#xe889;" d="M500 100l313-188v751a125 125 0 0 1-125 125h-375a125 125 0 0 1-125-125v-751l312 188z m-250-77l250 150 250-150v640a63 63 0 0 1-62 62h-375a63 63 0 0 1-63-62v-640z" horiz-adv-x="1000" />

<glyph glyph-name="bookmarks-fill" unicode="&#xe88a;" d="M125 600a125 125 0 0 0 125 125h375a125 125 0 0 0 125-125v-750l-312 188-313-188v750z m750-625l-62 38v712a63 63 0 0 1-63 63h-483a125 125 0 0 0 108 62h375a125 125 0 0 0 125-125v-750z" horiz-adv-x="1000" />

<glyph glyph-name="bookmarks" unicode="&#xe88b;" d="M438 38l312-188v750a125 125 0 0 1-125 125h-375a125 125 0 0 1-125-125v-750l313 188z m-250-78l250 150 250-150v640a63 63 0 0 1-63 63h-375a63 63 0 0 1-62-63v-640z m687 15l-62 38v712a63 63 0 0 1-63 63h-483a125 125 0 0 0 108 62h375a125 125 0 0 0 125-125v-750z" horiz-adv-x="1000" />

<glyph glyph-name="bookshelf" unicode="&#xe88c;" d="M156 850a31 31 0 0 0 32-31v-94h625v94a31 31 0 0 0 62 0v-938a31 31 0 0 0-62 0v31h-625v-31a31 31 0 0 0-63 0v938a31 31 0 0 0 31 31z m32-875h625v188h-625v-188z m0 250h625v188h-625v-188z m0 250h625v188h-625v-188z" horiz-adv-x="1000" />

<glyph glyph-name="bootstrap-fill" unicode="&#xe88d;" d="M250 850a250 250 0 0 1-250-250v-500a250 250 0 0 1 250-250h500a250 250 0 0 1 250 250v500a250 250 0 0 1-250 250h-500z m66-750h218c112 0 180 57 180 150 0 69-47 120-119 127v6c52 9 93 58 93 114 0 81-60 132-159 132h-213v-529z m82 305v154h112c61 0 96-29 96-77 0-51-38-77-110-77h-98z m0-235h119c74 0 113 30 113 86 0 55-40 84-118 84h-114v-170z" horiz-adv-x="1000" />

<glyph glyph-name="bootstrap-reboot" unicode="&#xe88e;" d="M73 350a428 428 0 1 1 427 428 36 36 0 0 0 0 72 500 500 0 1 0-410-213l-41 36a36 36 0 0 0 14 62l158 43a36 36 0 0 0 45-39l-21-162a36 36 0 0 0-59-23l-40 35a426 426 0 0 1-73-239z m342 5v165h98c55 0 89-31 89-82 0-53-32-83-87-83h-100z m0-234v176h98l94-176h82l-103 187c56 19 89 70 89 132 0 85-59 140-153 140h-178v-459h71z" horiz-adv-x="1000" />

<glyph glyph-name="bootstrap" unicode="&#xe88f;" d="M750 788h-500a188 188 0 0 1-187-188v-500a188 188 0 0 1 187-188h500a188 188 0 0 1 188 188v500a188 188 0 0 1-188 188z m-500 62a250 250 0 0 1-250-250v-500a250 250 0 0 1 250-250h500a250 250 0 0 1 250 250v500a250 250 0 0 1-250 250h-500z m284-750h-218v528h213c99 0 159-50 159-131 0-56-41-105-93-114v-6c72-7 119-58 119-127 0-93-68-150-180-150z m-136 459v-154h98c72 0 110 26 110 77 0 48-35 77-96 77h-112z m119-389h-119v170h114c78 0 118-29 118-84 0-56-39-86-113-86z" horiz-adv-x="1000" />

<glyph glyph-name="border-style" unicode="&#xe890;" d="M63 631a31 31 0 0 0 31 32h812a31 31 0 0 0 32-32v-62a31 31 0 0 0-32-31h-812a31 31 0 0 0-31 31v62z m0-250a31 31 0 0 0 31 32h312a31 31 0 0 0 32-32v-62a31 31 0 0 0-32-31h-312a31 31 0 0 0-31 31v62z m0-250a31 31 0 0 0 31 32h62a31 31 0 0 0 32-32v-62a31 31 0 0 0-32-31h-62a31 31 0 0 0-31 31v62z m500 0a31 31 0 0 0 31 32h62a31 31 0 0 0 32-32v-62a31 31 0 0 0-32-31h-62a31 31 0 0 0-31 31v62z m-250 0a31 31 0 0 0 31 32h62a31 31 0 0 0 32-32v-62a31 31 0 0 0-32-31h-62a31 31 0 0 0-31 31v62z m500 0a31 31 0 0 0 31 32h62a31 31 0 0 0 32-32v-62a31 31 0 0 0-32-31h-62a31 31 0 0 0-31 31v62z m-250 250a31 31 0 0 0 31 32h312a31 31 0 0 0 32-32v-62a31 31 0 0 0-32-31h-312a31 31 0 0 0-31 31v62z" horiz-adv-x="1000" />

<glyph glyph-name="border-width" unicode="&#xe891;" d="M0 631a31 31 0 0 0 31 32h938a31 31 0 0 0 31-32v-125a31 31 0 0 0-31-31h-938a31 31 0 0 0-31 31v125z m0-312a31 31 0 0 0 31 31h938a31 31 0 0 0 31-31v-63a31 31 0 0 0-31-31h-938a31 31 0 0 0-31 31v63z m0-250a31 31 0 0 0 31 31h938a31 31 0 0 0 0-62h-938a31 31 0 0 0-31 31z" horiz-adv-x="1000" />

<glyph glyph-name="bounding-box-circles" unicode="&#xe892;" d="M781 725h-562v63h562v-63z m-625-94v-562h-62v562h62z m688-562v562h62v-562h-62z m-625-94h562v-63h-562v63z m656 688a63 63 0 1 1 0 125 63 63 0 0 1 0-125z m0-63a125 125 0 1 1 0 250 125 125 0 0 1 0-250z m0-688a63 63 0 1 1 0 126 63 63 0 0 1 0-126z m0-62a125 125 0 1 1 0 250 125 125 0 0 1 0-250z m-750 813a63 63 0 1 1 0 125 63 63 0 0 1 0-125z m0-63a125 125 0 1 1 0 250 125 125 0 0 1 0-250z m0-688a63 63 0 1 1 0 126 63 63 0 0 1 0-126z m0-62a125 125 0 1 1 0 250 125 125 0 0 1 0-250z" horiz-adv-x="1000" />

<glyph glyph-name="bounding-box" unicode="&#xe893;" d="M313 725v125h-313v-312h125v-375h-125v-313h313v125h375v-125h312v313h-125v375h125v312h-312v-125h-375z m375-62h-375v-125h-125v-375h125v-125h375v125h125v375h-125v125z m62 125v-188h188v188h-188z m188-688h-188v-188h188v188z m-688-188v188h-187v-188h187z m-187 688h187v188h-187v-188z" horiz-adv-x="1000" />

<glyph glyph-name="box-arrow-down-left" unicode="&#xe894;" d="M813 756a94 94 0 0 0 93-93v-500a94 94 0 0 0-93-94h-250a31 31 0 0 0 0 62h250a31 31 0 0 1 31 32v500a31 31 0 0 1-31 31h-500a31 31 0 0 1-32-31v-250a31 31 0 0 0-62 0v250a94 94 0 0 0 94 93h500z m-688-437a31 31 0 0 1-31-31v-313a31 31 0 0 1 31-31h313a31 31 0 0 1 0 62h-282v282a31 31 0 0 1-31 31z m-22-366a31 31 0 0 1 44 0l500 500a31 31 0 0 1-44 44l-500-500a31 31 0 0 1 0-44z" horiz-adv-x="1000" />

<glyph glyph-name="box-arrow-down-right" unicode="&#xe895;" d="M188 756a94 94 0 0 1-94-93v-500a94 94 0 0 1 94-94h250a31 31 0 0 1 0 62h-250a31 31 0 0 0-32 32v500a31 31 0 0 0 32 31h500a31 31 0 0 0 31-31v-250a31 31 0 0 1 62 0v250a94 94 0 0 1-93 93h-500z m687-437a31 31 0 0 0 31-31v-313a31 31 0 0 0-31-31h-312a31 31 0 0 0 0 62h281v282a31 31 0 0 0 31 31z m22-366a31 31 0 0 0-44 0l-500 500a31 31 0 1 0 44 44l500-500a31 31 0 0 0 0-44z" horiz-adv-x="1000" />

<glyph glyph-name="box-arrow-down" unicode="&#xe896;" d="M290 122a31 31 0 0 0 45 0l165-165 165 165a31 31 0 0 0 45-44l-188-188a31 31 0 0 0-44 0l-188 188a31 31 0 0 0 0 44z m210 447a31 31 0 0 0 31-31v-563a31 31 0 0 0-62 0v563a31 31 0 0 0 31 31z m-344 156a94 94 0 0 0 94 94h500a94 94 0 0 0 94-94v-437a94 94 0 0 0-94-94h-94a31 31 0 0 0 0 62h94a31 31 0 0 1 31 32v437a31 31 0 0 1-31 31h-500a31 31 0 0 1-31-31v-437a31 31 0 0 1 31-32h94a31 31 0 0 0 0-62h-94a94 94 0 0 0-94 94v437z" horiz-adv-x="1000" />

<glyph glyph-name="box-arrow-in-down-left" unicode="&#xe897;" d="M94 38a94 94 0 0 1 94-94h625a94 94 0 0 1 93 94v312a31 31 0 0 1-62 0v-312a31 31 0 0 0-31-32h-625a31 31 0 0 0-32 32v625a31 31 0 0 0 32 31h250a31 31 0 0 1 0 62h-250a94 94 0 0 1-94-93v-625z m625 187a31 31 0 0 0-31-31h-313a31 31 0 0 0-31 31v313a31 31 0 0 0 62 0v-282h282a31 31 0 0 0 31-31z m-366-22a31 31 0 0 0 0 44l500 500a31 31 0 0 0 44-44l-500-500a31 31 0 0 0-44 0z" horiz-adv-x="1000" />

<glyph glyph-name="box-arrow-in-down-right" unicode="&#xe898;" d="M906 38a94 94 0 0 0-93-94h-625a94 94 0 0 0-94 94v312a31 31 0 0 0 62 0v-312a31 31 0 0 1 32-32h625a31 31 0 0 1 31 32v625a31 31 0 0 1-31 31h-250a31 31 0 0 0 0 62h250a94 94 0 0 0 93-93v-625z m-625 187a31 31 0 0 1 32-31h312a31 31 0 0 1 31 31v313a31 31 0 0 1-62 0v-282h-281a31 31 0 0 1-32-31z m366-22a31 31 0 0 1 0 44l-500 500a31 31 0 1 1-44-44l500-500a31 31 0 0 1 44 0z" horiz-adv-x="1000" />

<glyph glyph-name="box-arrow-in-down" unicode="&#xe899;" d="M290 341a31 31 0 0 0 45 0l165-166 165 166a31 31 0 0 0 45-44l-188-188a31 31 0 0 0-44 0l-188 188a31 31 0 0 0 0 44z m210 447a31 31 0 0 0 31-32v-562a31 31 0 0 0-62 0v562a31 31 0 0 0 31 32z m-406-782a94 94 0 0 1 94-94h625a94 94 0 0 1 93 94v500a94 94 0 0 1-93 94h-94a31 31 0 0 1 0-62h94a31 31 0 0 0 31-32v-500a31 31 0 0 0-31-31h-625a31 31 0 0 0-32 31v500a31 31 0 0 0 32 32h93a31 31 0 0 1 0 62h-93a94 94 0 0 1-94-94v-500z" horiz-adv-x="1000" />

<glyph glyph-name="box-arrow-in-left" unicode="&#xe89a;" d="M491 140a31 31 0 0 1 0 45l-166 165 166 165a31 31 0 1 1-44 45l-188-188a31 31 0 0 1 0-44l188-188a31 31 0 0 1 44 0z m447 210a31 31 0 0 1-32 31h-562a31 31 0 0 1 0-62h562a31 31 0 0 1 32 31z m-782-406a94 94 0 0 0-93 94v625a94 94 0 0 0 93 93h500a94 94 0 0 0 94-93v-94a31 31 0 0 0-62 0v94a31 31 0 0 1-32 31h-500a31 31 0 0 1-31-31v-625a31 31 0 0 1 31-32h500a31 31 0 0 1 32 32v93a31 31 0 0 0 62 0v-93a94 94 0 0 0-94-94h-500z" horiz-adv-x="1000" />

<glyph glyph-name="box-arrow-in-right" unicode="&#xe89b;" d="M509 140a31 31 0 0 0 0 45l166 165-166 165a31 31 0 1 0 44 45l188-188a31 31 0 0 0 0-44l-188-188a31 31 0 0 0-44 0z m-446 210a31 31 0 0 0 31 31h562a31 31 0 0 0 0-62h-562a31 31 0 0 0-31 31z m781-406a94 94 0 0 1 94 94v625a94 94 0 0 1-94 93h-500a94 94 0 0 1-94-93v-94a31 31 0 0 1 63 0v94a31 31 0 0 0 31 31h500a31 31 0 0 0 31-31v-625a31 31 0 0 0-31-32h-500a31 31 0 0 0-31 32v93a31 31 0 0 1-63 0v-93a94 94 0 0 1 94-94h500z" horiz-adv-x="1000" />

<glyph glyph-name="box-arrow-in-up-left" unicode="&#xe89c;" d="M94 663a94 94 0 0 0 94 93h625a94 94 0 0 0 93-93v-313a31 31 0 0 0-62 0v313a31 31 0 0 1-31 31h-625a31 31 0 0 1-32-31v-625a31 31 0 0 1 32-32h250a31 31 0 0 0 0-62h-250a94 94 0 0 0-94 94v625z m625-188a31 31 0 0 1-31 31h-313a31 31 0 0 1-31-31v-312a31 31 0 0 1 62 0v281h282a31 31 0 0 1 31 31z m-366 22a31 31 0 0 1 0-44l500-500a31 31 0 0 1 44 44l-500 500a31 31 0 0 1-44 0z" horiz-adv-x="1000" />

<glyph glyph-name="box-arrow-in-up-right" unicode="&#xe89d;" d="M906 663a94 94 0 0 1-93 93h-625a94 94 0 0 1-94-93v-313a31 31 0 0 1 62 0v313a31 31 0 0 0 32 31h625a31 31 0 0 0 31-31v-625a31 31 0 0 0-31-32h-250a31 31 0 0 1 0-62h250a94 94 0 0 1 93 94v625z m-625-188a31 31 0 0 0 32 31h312a31 31 0 0 0 31-31v-312a31 31 0 0 0-62 0v281h-281a31 31 0 0 0-32 31z m366 22a31 31 0 0 0 0-44l-500-500a31 31 0 0 0-44 44l500 500a31 31 0 0 0 44 0z" horiz-adv-x="1000" />

<glyph glyph-name="box-arrow-in-up" unicode="&#xe89e;" d="M290 359a31 31 0 0 1 45 0l165 166 165-166a31 31 0 0 1 45 44l-188 188a31 31 0 0 1-44 0l-188-188a31 31 0 0 1 0-44z m210-447a31 31 0 0 1 31 32v562a31 31 0 0 1-62 0v-562a31 31 0 0 1 31-32z m-406 782a94 94 0 0 0 94 94h625a94 94 0 0 0 93-94v-500a94 94 0 0 0-93-94h-94a31 31 0 0 0 0 63h94a31 31 0 0 1 31 31v500a31 31 0 0 1-31 31h-625a31 31 0 0 1-32-31v-500a31 31 0 0 1 32-31h93a31 31 0 0 0 0-63h-93a94 94 0 0 0-94 94v500z" horiz-adv-x="1000" />

<glyph glyph-name="box-arrow-left" unicode="&#xe89f;" d="M272 140a31 31 0 0 1 0 45l-165 165 165 165a31 31 0 1 1-44 45l-188-188a31 31 0 0 1 0-44l188-188a31 31 0 0 1 44 0z m447 210a31 31 0 0 1-31 31h-563a31 31 0 0 1 0-62h563a31 31 0 0 1 31 31z m156-344a94 94 0 0 1 94 94v500a94 94 0 0 1-94 94h-437a94 94 0 0 1-94-94v-94a31 31 0 0 1 62 0v94a31 31 0 0 0 32 31h437a31 31 0 0 0 31-31v-500a31 31 0 0 0-31-31h-437a31 31 0 0 0-32 31v94a31 31 0 0 1-62 0v-94a94 94 0 0 1 94-94h437z" horiz-adv-x="1000" />

<glyph glyph-name="box-arrow-right" unicode="&#xe8a0;" d="M728 140a31 31 0 0 0 0 45l165 165-165 165a31 31 0 0 0 44 45l188-188a31 31 0 0 0 0-44l-188-188a31 31 0 0 0-44 0z m-447 210a31 31 0 0 0 32 31h562a31 31 0 0 0 0-62h-562a31 31 0 0 0-32 31z m-156-344a94 94 0 0 0-94 94v500a94 94 0 0 0 94 94h438a94 94 0 0 0 93-94v-94a31 31 0 0 0-62 0v94a31 31 0 0 1-31 31h-438a31 31 0 0 1-31-31v-500a31 31 0 0 1 31-31h438a31 31 0 0 1 31 31v94a31 31 0 0 0 62 0v-94a94 94 0 0 0-93-94h-438z" horiz-adv-x="1000" />

<glyph glyph-name="box-arrow-up-left" unicode="&#xe8a1;" d="M906 38a94 94 0 0 0-93-94h-500a94 94 0 0 0-94 94v250a31 31 0 0 0 62 0v-250a31 31 0 0 1 32-32h500a31 31 0 0 1 31 32v500a31 31 0 0 1-31 31h-250a31 31 0 0 0 0 62h250a94 94 0 0 0 93-93v-500z m-437 687a31 31 0 0 1-31 31h-313a31 31 0 0 1-31-31v-312a31 31 0 0 1 62 0v281h282a31 31 0 0 1 31 31z m-366 22a31 31 0 0 1 0-44l500-500a31 31 0 0 1 44 44l-500 500a31 31 0 0 1-44 0z" horiz-adv-x="1000" />

<glyph glyph-name="box-arrow-up-right" unicode="&#xe8a2;" d="M94 38a94 94 0 0 1 94-94h500a94 94 0 0 1 93 94v250a31 31 0 0 1-62 0v-250a31 31 0 0 0-31-32h-500a31 31 0 0 0-32 32v500a31 31 0 0 0 32 31h250a31 31 0 0 1 0 62h-250a94 94 0 0 1-94-93v-500z m437 687a31 31 0 0 0 32 31h312a31 31 0 0 0 31-31v-312a31 31 0 0 0-62 0v281h-281a31 31 0 0 0-32 31z m366 22a31 31 0 0 0 0-44l-500-500a31 31 0 0 0-44 44l500 500a31 31 0 0 0 44 0z" horiz-adv-x="1000" />

<glyph glyph-name="box-arrow-up" unicode="&#xe8a3;" d="M290 578a31 31 0 0 1 45 0l165 165 165-165a31 31 0 0 1 45 44l-188 188a31 31 0 0 1-44 0l-188-188a31 31 0 0 1 0-44z m210-447a31 31 0 0 1 31 32v562a31 31 0 0 1-62 0v-562a31 31 0 0 1 31-32z m-344-156a94 94 0 0 1 94-94h500a94 94 0 0 1 94 94v438a94 94 0 0 1-94 93h-94a31 31 0 0 1 0-62h94a31 31 0 0 0 31-31v-438a31 31 0 0 0-31-31h-500a31 31 0 0 0-31 31v438a31 31 0 0 0 31 31h94a31 31 0 0 1 0 62h-94a94 94 0 0 1-94-93v-438z" horiz-adv-x="1000" />

<glyph glyph-name="box-seam" unicode="&#xe8a4;" d="M512 780a31 31 0 0 1-24 0l-373-149 151-60 384 154-138 55z m222-89l-384-153 150-61 385 154-151 60z m204-106l-407-162v-496l407 163v495z m-469-658v496l-406 162v-495l406-163z m-4 912a94 94 0 0 0 70 0l445-179a31 31 0 0 0 20-29v-541a63 63 0 0 0-39-58l-449-180a31 31 0 0 0-24 0l-449 180a63 63 0 0 0-39 58v541a31 31 0 0 0 20 29l445 179z" horiz-adv-x="1000" />

<glyph glyph-name="box" unicode="&#xe8a5;" d="M512 780a31 31 0 0 1-24 0l-373-149 385-154 385 154-373 149z m426-195l-407-162v-496l407 163v495z m-469-658v496l-406 162v-495l406-163z m-4 912a94 94 0 0 0 70 0l445-179a31 31 0 0 0 20-29v-541a63 63 0 0 0-39-58l-449-180a31 31 0 0 0-24 0l-449 180a63 63 0 0 0-39 58v541a31 31 0 0 0 20 29l445 179z" horiz-adv-x="1000" />

<glyph glyph-name="braces" unicode="&#xe8a6;" d="M132 346v10c63 7 94 39 94 100v113c0 68 24 96 84 96h17v60h-23c-101 0-148-47-148-147v-95c0-69-24-91-93-91v-81c69 0 93-23 93-91v-96c0-99 47-147 148-147h23v61h-17c-60 0-84 27-84 96v112c0 62-31 94-94 100z m736 10v-10c-63-6-94-38-94-100v-112c0-69-24-96-84-96h-17v-61h23c101 0 148 48 148 147v96c0 68 24 91 94 91v81c-70 0-94 22-94 91v95c0 100-47 147-148 147h-23v-60h17c60 0 84-28 84-96v-113c0-61 31-93 94-100z" horiz-adv-x="1000" />

<glyph glyph-name="bricks" unicode="&#xe8a7;" d="M938 38h-875v-126h875v126z m-875 62a63 63 0 0 1-63-62v-126a63 63 0 0 1 63-62h875a63 63 0 0 1 62 62v126a63 63 0 0 1-62 62h-875z m875 313h-875v-125h875v125z m-875 62a63 63 0 0 1-63-62v-125a63 63 0 0 1 63-63h875a63 63 0 0 1 62 63v125a63 63 0 0 1-62 62h-875z m750-250h-625v-125h625v125z m-625 63a63 63 0 0 1-63-63v-125a63 63 0 0 1 63-62h625a63 63 0 0 1 62 62v125a63 63 0 0 1-62 63h-625z m625 312h-625v-125h625v125z m-625 63a63 63 0 0 1-63-63v-125a63 63 0 0 1 63-62h625a63 63 0 0 1 62 62v125a63 63 0 0 1-62 63h-625z m750 125h-875v-125h875v125z m-875 62a63 63 0 0 1-63-62v-125a63 63 0 0 1 63-63h875a63 63 0 0 1 62 63v125a63 63 0 0 1-62 62h-875z m281-62v-125h-63v125h63z m375 0v-125h-63v125h63z m-250-313v125h62v-125h-62z m-125-62v-125h-63v125h63z m375 0v-125h-63v125h63z m-250-313v125h62v-125h-62z m-188-188v126h63v-126h-63z m375 0v126h63v-126h-63z" horiz-adv-x="1000" />

<glyph glyph-name="briefcase-fill" unicode="&#xe8a8;" d="M0 69a94 94 0 0 1 94-94h812a94 94 0 0 1 94 94v353l-492-131a31 31 0 0 0-16 0l-492 131v-353z m0 500a94 94 0 0 0 94 94h812a94 94 0 0 0 94-94v-87l-476-127a94 94 0 0 0-48 0l-476 127v87z m313 125a94 94 0 0 0 93 94h188a94 94 0 0 0 94-94v-31h-63v31a31 31 0 0 1-31 31h-188a31 31 0 0 1-31-31v-31h-62v31z" horiz-adv-x="1000" />

<glyph glyph-name="briefcase" unicode="&#xe8a9;" d="M0 69a94 94 0 0 1 94-94h812a94 94 0 0 1 94 94v375h-62v-375a31 31 0 0 0-32-31h-812a31 31 0 0 0-31 31v375h-63v-375z m0 500a94 94 0 0 0 94 94h812a94 94 0 0 0 94-94v-149l-476-127a94 94 0 0 0-48 0l-476 127v149z m94 31a31 31 0 0 1-31-31v-101l429-115a31 31 0 0 1 16 0l430 115v101a31 31 0 0 1-32 31h-812z m219 94a94 94 0 0 0 93 94h188a94 94 0 0 0 94-94v-31h-63v31a31 31 0 0 1-31 31h-188a31 31 0 0 1-31-31v-31h-62v31z" horiz-adv-x="1000" />

<glyph glyph-name="brightness-alt-high-fill" unicode="&#xe8aa;" d="M250 163a250 250 0 1 0 500 0 31 31 0 0 0-31-32h-438a31 31 0 0 0-31 32z m250 500a31 31 0 0 0 31-32v-125a31 31 0 0 0-62 0v125a31 31 0 0 0 31 32z m500-500a31 31 0 0 0-31-32h-125a31 31 0 0 0 0 63h125a31 31 0 0 0 31-31z m-812 0a31 31 0 0 0-32-32h-125a31 31 0 0 0 0 63h125a31 31 0 0 0 32-31z m666 353a31 31 0 0 0 0-44l-89-88a31 31 0 1 0-44 44l88 88a31 31 0 0 0 45 0z m-575-132a31 31 0 0 0-44 0l-89 88a31 31 0 0 0 45 44l88-88a31 31 0 0 0 0-44z" horiz-adv-x="1000" />

<glyph glyph-name="brightness-alt-high" unicode="&#xe8ab;" d="M315 194h370a188 188 0 0 1-370 0z m-65-31a250 250 0 1 0 500 0 31 31 0 0 0-31-32h-438a31 31 0 0 0-31 32z m250 500a31 31 0 0 0 31-32v-125a31 31 0 0 0-62 0v125a31 31 0 0 0 31 32z m500-500a31 31 0 0 0-31-32h-125a31 31 0 0 0 0 63h125a31 31 0 0 0 31-31z m-812 0a31 31 0 0 0-32-32h-125a31 31 0 0 0 0 63h125a31 31 0 0 0 32-31z m666 353a31 31 0 0 0 0-44l-89-88a31 31 0 1 0-44 44l88 88a31 31 0 0 0 45 0z m-575-132a31 31 0 0 0-44 0l-89 88a31 31 0 0 0 45 44l88-88a31 31 0 0 0 0-44z" horiz-adv-x="1000" />

<glyph glyph-name="brightness-alt-low-fill" unicode="&#xe8ac;" d="M531 506a31 31 0 1 0-62 0 31 31 0 0 0 62 0z m313-375a31 31 0 1 0 0 63 31 31 0 0 0 0-63z m-688 0a31 31 0 1 0 0 63 31 31 0 0 0 0-63z m609 253a31 31 0 1 0-44 44 31 31 0 0 0 44-44z m-530 0a31 31 0 1 0 44 44 31 31 0 0 0-44-44z m15-221a250 250 0 1 0 500 0 31 31 0 0 0-31-32h-438a31 31 0 0 0-31 32z" horiz-adv-x="1000" />

<glyph glyph-name="brightness-alt-low" unicode="&#xe8ad;" d="M531 506a31 31 0 1 0-62 0 31 31 0 0 0 62 0z m313-375a31 31 0 1 0 0 63 31 31 0 0 0 0-63z m-688 0a31 31 0 1 0 0 63 31 31 0 0 0 0-63z m609 253a31 31 0 1 0-44 44 31 31 0 0 0 44-44z m-530 0a31 31 0 1 0 44 44 31 31 0 0 0-44-44z m80-190h370a188 188 0 0 1-370 0z m-65-31a250 250 0 1 0 500 0 31 31 0 0 0-31-32h-438a31 31 0 0 0-31 32z" horiz-adv-x="1000" />

<glyph glyph-name="brightness-high-fill" unicode="&#xe8ae;" d="M750 350a250 250 0 1 0-500 0 250 250 0 0 0 500 0z m-250 500a31 31 0 0 0 31-31v-125a31 31 0 0 0-62 0v125a31 31 0 0 0 31 31z m0-812a31 31 0 0 0 31-32v-125a31 31 0 0 0-62 0v125a31 31 0 0 0 31 32z m500 312a31 31 0 0 0-31-31h-125a31 31 0 0 0 0 62h125a31 31 0 0 0 31-31z m-812 0a31 31 0 0 0-32-31h-125a31 31 0 0 0 0 62h125a31 31 0 0 0 32-31z m666 354a31 31 0 0 0 0-45l-89-88a31 31 0 1 0-44 44l88 89a31 31 0 0 0 45 0z m-575-575a31 31 0 0 0 0-44l-88-89a31 31 0 0 0-45 45l89 88a31 31 0 0 0 44 0z m575-133a31 31 0 0 0-45 0l-88 89a31 31 0 0 0 44 44l89-88a31 31 0 0 0 0-45z m-575 575a31 31 0 0 0-44 0l-89 88a31 31 0 1 0 45 45l88-89a31 31 0 0 0 0-44z" horiz-adv-x="1000" />

<glyph glyph-name="brightness-high" unicode="&#xe8af;" d="M500 163a188 188 0 1 1 0 375 188 188 0 0 1 0-375z m0-63a250 250 0 1 1 0 500 250 250 0 0 1 0-500z m0 750a31 31 0 0 0 31-31v-125a31 31 0 0 0-62 0v125a31 31 0 0 0 31 31z m0-812a31 31 0 0 0 31-32v-125a31 31 0 0 0-62 0v125a31 31 0 0 0 31 32z m500 312a31 31 0 0 0-31-31h-125a31 31 0 0 0 0 62h125a31 31 0 0 0 31-31z m-812 0a31 31 0 0 0-32-31h-125a31 31 0 0 0 0 62h125a31 31 0 0 0 32-31z m666 354a31 31 0 0 0 0-45l-89-88a31 31 0 1 0-44 44l88 89a31 31 0 0 0 45 0z m-575-575a31 31 0 0 0 0-44l-88-89a31 31 0 0 0-45 45l89 88a31 31 0 0 0 44 0z m575-133a31 31 0 0 0-45 0l-88 89a31 31 0 0 0 44 44l89-88a31 31 0 0 0 0-45z m-575 575a31 31 0 0 0-44 0l-89 88a31 31 0 1 0 45 45l88-89a31 31 0 0 0 0-44z" horiz-adv-x="1000" />

<glyph glyph-name="brightness-low-fill" unicode="&#xe8b0;" d="M750 350a250 250 0 1 0-500 0 250 250 0 0 0 500 0z m-219 344a31 31 0 1 0-62 0 31 31 0 0 0 62 0z m0-688a31 31 0 1 0-62 0 31 31 0 0 0 62 0z m313 313a31 31 0 1 0 0 62 31 31 0 0 0 0-62z m-688 0a31 31 0 1 0 0 62 31 31 0 0 0 0-62z m609 252a31 31 0 1 0-44 44 31 31 0 0 0 44-44z m-486-486a31 31 0 1 0-44 44 31 31 0 0 0 44-44z m442 0a31 31 0 1 0 44 44 31 31 0 0 0-44-44z m-486 486a31 31 0 1 0 44 44 31 31 0 0 0-44-44z" horiz-adv-x="1000" />

<glyph glyph-name="brightness-low" unicode="&#xe8b1;" d="M500 163a188 188 0 1 1 0 375 188 188 0 0 1 0-375z m0-63a250 250 0 1 1 0 500 250 250 0 0 1 0-500z m31 594a31 31 0 1 0-62 0 31 31 0 0 0 62 0z m0-688a31 31 0 1 0-62 0 31 31 0 0 0 62 0z m313 313a31 31 0 1 0 0 62 31 31 0 0 0 0-62z m-688 0a31 31 0 1 0 0 62 31 31 0 0 0 0-62z m609 252a31 31 0 1 0-44 44 31 31 0 0 0 44-44z m-486-486a31 31 0 1 0-44 44 31 31 0 0 0 44-44z m442 0a31 31 0 1 0 44 44 31 31 0 0 0-44-44z m-486 486a31 31 0 1 0 44 44 31 31 0 0 0-44-44z" horiz-adv-x="1000" />

<glyph glyph-name="broadcast-pin" unicode="&#xe8b2;" d="M191 659a438 438 0 0 1 0-618 31 31 0 0 0-45-45 500 500 0 0 0 0 708 31 31 0 0 0 45-45z m132-132a250 250 0 0 1 0-354 31 31 0 0 0-44-44 313 313 0 0 0 0 442 31 31 0 0 0 44-44z m354 44a31 31 0 0 0 44 0 313 313 0 0 0 0-442 31 31 0 1 0-44 44 250 250 0 0 1 0 354 31 31 0 0 0 0 44z m132 133a31 31 0 0 0 45 0 500 500 0 0 0 0-708 31 31 0 0 0-45 45 438 438 0 0 1 0 618 31 31 0 0 0 0 45z m-184-354a125 125 0 1 0-250 0 125 125 0 0 0 250 0z m-125-31a31 31 0 0 0 31-31v-407a31 31 0 0 0-62 0v407a31 31 0 0 0 31 31z" horiz-adv-x="1000" />

<glyph glyph-name="broadcast" unicode="&#xe8b3;" d="M191 659a438 438 0 0 1 0-618 31 31 0 0 0-45-45 500 500 0 0 0 0 708 31 31 0 0 0 45-45z m132-132a250 250 0 0 1 0-354 31 31 0 0 0-44-44 313 313 0 0 0 0 442 31 31 0 0 0 44-44z m354 44a31 31 0 0 0 44 0 313 313 0 0 0 0-442 31 31 0 1 0-44 44 250 250 0 0 1 0 354 31 31 0 0 0 0 44z m132 133a31 31 0 0 0 45 0 500 500 0 0 0 0-708 31 31 0 0 0-45 45 438 438 0 0 1 0 618 31 31 0 0 0 0 45z m-184-354a125 125 0 1 0-250 0 125 125 0 0 0 250 0z" horiz-adv-x="1000" />

<glyph glyph-name="brush" unicode="&#xe8b4;" d="M951 786a36 36 0 0 0 47-3 36 36 0 0 0 4-46c-59-80-249-331-402-484-44-44-89-78-122-100-32-21-73-14-100 13-26 26-33 65-13 96 21 34 55 80 102 124 158 147 405 340 484 400z m-513-686a125 125 0 0 0-125-125c-63 0-125 0-219 31s31 63 62 94 87 125 157 125a125 125 0 0 0 125-125z" horiz-adv-x="1000" />

<glyph glyph-name="bucket-fill" unicode="&#xe8b5;" d="M500 756a281 281 0 0 1-281-281h-63a344 344 0 1 0 688 0h-63a281 281 0 0 1-281 281z m-399-261a31 31 0 0 0 24 11h750a31 31 0 0 0 31-38l-115-513a94 94 0 0 0-91-74h-400a94 94 0 0 0-91 74l-114 513a31 31 0 0 0 6 27z" horiz-adv-x="1000" />

<glyph glyph-name="bucket" unicode="&#xe8b6;" d="M500 756a281 281 0 0 1-281-281h-63a344 344 0 1 0 688 0h-63a281 281 0 0 1-281 281z m-399-261a31 31 0 0 0 24 11h750a31 31 0 0 0 31-38l-115-513a94 94 0 0 0-91-74h-400a94 94 0 0 0-91 74l-114 513a31 31 0 0 0 6 27z m63-51l106-476a31 31 0 0 1 30-24h400a31 31 0 0 1 30 24l106 476h-672z" horiz-adv-x="1000" />

<glyph glyph-name="bug-fill" unicode="&#xe8b7;" d="M311 797a31 31 0 1 1-60-19l26-84a312 312 0 0 1-89-219h625a312 312 0 0 1-90 219l26 84a31 31 0 1 1-60 19l-18-60a311 311 0 0 1-171 51 311 311 0 0 1-171-51l-18 60z m502-322v-62h-282v-561a313 313 0 0 1 282 311h31a31 31 0 0 0 31-32v-31a31 31 0 1 1 63 0v31a94 94 0 0 1-94 94h-31v63h93a31 31 0 0 1 0 62h-93v63h31a94 94 0 0 1 94 93v32a31 31 0 0 1-63 0v-32a31 31 0 0 0-31-31h-31z m-344-623v561h-281v62h-32a31 31 0 0 0-31 31v32a31 31 0 0 1-62 0v-32a94 94 0 0 1 93-93h32v-63h-94a31 31 0 0 1 0-62h94v-63h-32a94 94 0 0 1-93-94v-31a31 31 0 1 1 62 0v31a31 31 0 0 0 31 32h32a313 313 0 0 1 281-311z" horiz-adv-x="1000" />

<glyph glyph-name="bug" unicode="&#xe8b8;" d="M272 817a31 31 0 0 0 39-20l18-60a311 311 0 0 0 171 51c63 0 122-19 171-51l18 60a31 31 0 1 0 60-19l-26-84a312 312 0 0 0 90-219h31a31 31 0 0 1 31 31v32a31 31 0 0 0 63 0v-32a94 94 0 0 0-94-93h-31v-63h93a31 31 0 0 0 0-62h-93v-63h31a94 94 0 0 0 94-94v-31a31 31 0 1 0-63 0v31a31 31 0 0 1-31 32h-31a313 313 0 0 0-625 0h-32a31 31 0 0 1-31-32v-31a31 31 0 1 0-62 0v31a94 94 0 0 0 93 94h32v63h-94a31 31 0 0 0 0 62h94v63h-32a94 94 0 0 0-93 93v32a31 31 0 0 0 62 0v-32a31 31 0 0 1 31-31h32c0 85 34 163 89 219l-26 84a31 31 0 0 0 21 39z m-22-404v-250a250 250 0 0 1 219-249v499h-219z m281 0v-499a250 250 0 0 1 219 249v250h-219z m219 62h-500a249 249 0 0 0 83 186 249 249 0 0 0 167 64c64 0 122-24 167-64a249 249 0 0 0 83-186z" horiz-adv-x="1000" />

<glyph glyph-name="building" unicode="&#xe8b9;" d="M923 845a31 31 0 0 0 15-26v-938a31 31 0 0 0-32-31h-187a31 31 0 0 0-31 31v94h-63v-94a31 31 0 0 0-31-31h-563a31 31 0 0 0-31 31v344a31 31 0 0 0 21 30l354 118v196a31 31 0 0 0 17 28l500 250a31 31 0 0 0 31-2z m-548-538l-312-104v-291h312v395z m63-395h125v94a31 31 0 0 0 31 32h125a31 31 0 0 0 31-32v-94h125v856l-437-219v-637z m-313 251h63v-63h-63v63z m125 0h63v-63h-63v63z m-125-125h63v-63h-63v63z m125 0h63v-63h-63v63z m250 250h63v-63h-63v63z m125 0h63v-63h-63v63z m-125-125h63v-63h-63v63z m125 0h63v-63h-63v63z m125 125h63v-63h-63v63z m0-125h63v-63h-63v63z m-250 250h63v-63h-63v63z m125 0h63v-63h-63v63z m125 0h63v-63h-63v63z m-250 125h63v-63h-63v63z m125 0h63v-63h-63v63z m125 0h63v-63h-63v63z m0 125h63v-63h-63v63z" horiz-adv-x="1000" />

<glyph glyph-name="bullseye" unicode="&#xe8ba;" d="M500-88a438 438 0 1 1 0 876 438 438 0 0 1 0-876z m0-62a500 500 0 1 1 0 1000 500 500 0 0 1 0-1000z m0 188a313 313 0 1 1 0 625 313 313 0 0 1 0-625z m0-63a375 375 0 1 1 0 750 375 375 0 0 1 0-750z m0 188a188 188 0 1 1 0 375 188 188 0 0 1 0-375z m0-63a250 250 0 1 1 0 500 250 250 0 0 1 0-500z m94 250a94 94 0 1 0-188 0 94 94 0 0 0 188 0z" horiz-adv-x="1000" />

<glyph glyph-name="calculator-fill" unicode="&#xe8bb;" d="M750 788h-500a63 63 0 0 1-62-63v-750a63 63 0 0 1 62-63h500a63 63 0 0 1 63 63v750a63 63 0 0 1-63 63z m-500 62a125 125 0 0 1-125-125v-750a125 125 0 0 1 125-125h500a125 125 0 0 1 125 125v750a125 125 0 0 1-125 125h-500z m0-156a31 31 0 0 0 31 31h438a31 31 0 0 0 31-31v-125a31 31 0 0 0-31-31h-438a31 31 0 0 0-31 31v125z m0-250a31 31 0 0 0 31 31h63a31 31 0 0 0 31-31v-63a31 31 0 0 0-31-31h-63a31 31 0 0 0-31 31v63z m0-188a31 31 0 0 0 31 32h63a31 31 0 0 0 31-32v-62a31 31 0 0 0-31-31h-63a31 31 0 0 0-31 31v62z m0-187a31 31 0 0 0 31 31h63a31 31 0 0 0 31-31v-63a31 31 0 0 0-31-31h-63a31 31 0 0 0-31 31v63z m188 375a31 31 0 0 0 31 31h62a31 31 0 0 0 32-31v-63a31 31 0 0 0-32-31h-62a31 31 0 0 0-31 31v63z m0-188a31 31 0 0 0 31 32h62a31 31 0 0 0 32-32v-62a31 31 0 0 0-32-31h-62a31 31 0 0 0-31 31v62z m0-187a31 31 0 0 0 31 31h62a31 31 0 0 0 32-31v-63a31 31 0 0 0-32-31h-62a31 31 0 0 0-31 31v63z m187 375a31 31 0 0 0 31 31h63a31 31 0 0 0 31-31v-63a31 31 0 0 0-31-31h-63a31 31 0 0 0-31 31v63z m0-188a31 31 0 0 0 31 32h63a31 31 0 0 0 31-32v-250a31 31 0 0 0-31-31h-63a31 31 0 0 0-31 31v250z" horiz-adv-x="1000" />

<glyph glyph-name="calculator" unicode="&#xe8bc;" d="M125 725a125 125 0 0 0 125 125h500a125 125 0 0 0 125-125v-750a125 125 0 0 0-125-125h-500a125 125 0 0 0-125 125v750z m125-31a31 31 0 0 0 31 31h438a31 31 0 0 0 31-31v-125a31 31 0 0 0-31-31h-438a31 31 0 0 0-31 31v125z m0-250a31 31 0 0 0 31 31h63a31 31 0 0 0 31-31v-63a31 31 0 0 0-31-31h-63a31 31 0 0 0-31 31v63z m31-156a31 31 0 0 1-31-32v-62a31 31 0 0 1 31-31h63a31 31 0 0 1 31 31v62a31 31 0 0 1-31 32h-63z m-31-219a31 31 0 0 0 31 31h63a31 31 0 0 0 31-31v-63a31 31 0 0 0-31-31h-63a31 31 0 0 0-31 31v63z m219 406a31 31 0 0 1-31-31v-63a31 31 0 0 1 31-31h62a31 31 0 0 1 32 31v63a31 31 0 0 1-32 31h-62z m-31-219a31 31 0 0 0 31 32h62a31 31 0 0 0 32-32v-62a31 31 0 0 0-32-31h-62a31 31 0 0 0-31 31v62z m31-156a31 31 0 0 1-31-31v-63a31 31 0 0 1 31-31h62a31 31 0 0 1 32 31v63a31 31 0 0 1-32 31h-62z m156 344a31 31 0 0 0 31 31h63a31 31 0 0 0 31-31v-63a31 31 0 0 0-31-31h-63a31 31 0 0 0-31 31v63z m31-156a31 31 0 0 1-31-32v-250a31 31 0 0 1 31-31h63a31 31 0 0 1 31 31v250a31 31 0 0 1-31 32h-63z" horiz-adv-x="1000" />

<glyph glyph-name="calendar-check-fill" unicode="&#xe8bd;" d="M250 819a31 31 0 0 1-62 0v-31h-63a125 125 0 0 1-125-125v-63h1000v63a125 125 0 0 1-125 125h-62v31a31 31 0 0 1-63 0v-31h-500v31z m-250-281h1000v-563a125 125 0 0 0-125-125h-750a125 125 0 0 0-125 125v563z m678-241a31 31 0 0 1-44 44l-165-166-72 72a31 31 0 1 1-44-44l94-94a31 31 0 0 1 44 0l187 188z" horiz-adv-x="1000" />

<glyph glyph-name="calendar-check" unicode="&#xe8be;" d="M678 403a31 31 0 0 0 0-44l-187-187a31 31 0 0 0-44 0l-94 93a31 31 0 1 0 44 45l72-72 165 165a31 31 0 0 0 44 0z m-615 197v-625a63 63 0 0 1 62-63h750a63 63 0 0 1 63 63v625h-875z m62 188a125 125 0 0 1-125-125v-688a125 125 0 0 1 125-125h750a125 125 0 0 1 125 125v688a125 125 0 0 1-125 125h-750z m94 62a31 31 0 0 0 31-31v-31a31 31 0 0 0-62 0v31a31 31 0 0 0 31 31z m562 0a31 31 0 0 0 32-31v-31a31 31 0 0 0-63 0v31a31 31 0 0 0 31 31z" horiz-adv-x="1000" />

<glyph glyph-name="calendar-date-fill" unicode="&#xe8bf;" d="M250 819a31 31 0 0 1-62 0v-31h-63a125 125 0 0 1-125-125v-63h1000v63a125 125 0 0 1-125 125h-62v31a31 31 0 0 1-63 0v-31h-500v31z m-250-281h1000v-563a125 125 0 0 0-125-125h-750a125 125 0 0 0-125 125v563z m584-487c-70 0-104 48-107 88h43c2-24 24-52 65-52 53 0 82 53 82 136h-2c-9-26-39-50-86-50-53 0-105 38-105 111 0 71 55 113 112 113 74 0 123-46 123-167 0-113-47-179-125-179z m4 159c39 0 74 30 74 73 0 52-33 77-73 77-36 0-73-24-73-75 0-51 34-75 72-75z m-185 180v-333h-42v288h-1c-18-10-55-32-79-48v43a788 788 0 0 0 82 50h40z" horiz-adv-x="1000" />

<glyph glyph-name="calendar-date" unicode="&#xe8c0;" d="M403 120v333h-40a788 788 0 0 1-82-50v-44c24 16 61 39 79 49h1v-288h42z m74 81c3-40 37-88 107-88 78 0 125 67 125 180 0 121-49 166-123 166-57 0-112-42-112-113 0-72 52-110 105-110 47 0 77 23 86 49h2c0-82-29-135-82-135-41 0-63 28-65 51h-43z m185 145c0-44-35-74-74-74-38 0-72 24-72 75 0 52 37 76 73 76 40 0 73-25 73-77z m-599 254v-625a63 63 0 0 1 62-63h750a63 63 0 0 1 63 63v625h-875z m62 188a125 125 0 0 1-125-125v-688a125 125 0 0 1 125-125h750a125 125 0 0 1 125 125v688a125 125 0 0 1-125 125h-750z m94 62a31 31 0 0 0 31-31v-31a31 31 0 0 0-62 0v31a31 31 0 0 0 31 31z m562 0a31 31 0 0 0 32-31v-31a31 31 0 0 0-63 0v31a31 31 0 0 0 31 31z" horiz-adv-x="1000" />

<glyph glyph-name="calendar-day-fill" unicode="&#xe8c1;" d="M250 819a31 31 0 0 1-62 0v-31h-63a125 125 0 0 1-125-125v-63h1000v63a125 125 0 0 1-125 125h-62v31a31 31 0 0 1-63 0v-31h-500v31z m-250-281h1000v-563a125 125 0 0 0-125-125h-750a125 125 0 0 0-125 125v563z m701-179a27 27 0 0 0-27 27c0 15 12 27 27 27a27 27 0 1 0 0-54z m21-35v-257h-42v257h42z m-429-257v144h141v38h-141v113h154v39h-197v-334h43z m206 0h42v159c0 35 14 63 60 63 7 0 16 0 20-1v39a113 113 0 0 1-16 1c-36 0-55-20-63-36h-1v32h-42v-257z" horiz-adv-x="1000" />

<glyph glyph-name="calendar-day" unicode="&#xe8c2;" d="M293 130v144h141v38h-141v113h154v38h-197v-333h43z m206 0h42v159c0 34 14 63 60 63 7 0 16-1 20-1v38a113 113 0 0 1-16 1c-36 0-55-20-63-35h-1v31h-42v-256z m175 318c0-15 12-26 27-26a27 27 0 1 1 0 53 27 27 0 0 1-27-27z m6-318h42v256h-42v-256z m-617 470v-625a63 63 0 0 1 62-63h750a63 63 0 0 1 63 63v625h-875z m62 188a125 125 0 0 1-125-125v-688a125 125 0 0 1 125-125h750a125 125 0 0 1 125 125v688a125 125 0 0 1-125 125h-750z m94 62a31 31 0 0 0 31-31v-31a31 31 0 0 0-62 0v31a31 31 0 0 0 31 31z m562 0a31 31 0 0 0 32-31v-31a31 31 0 0 0-63 0v31a31 31 0 0 0 31 31z" horiz-adv-x="1000" />

<glyph glyph-name="calendar-event-fill" unicode="&#xe8c3;" d="M250 819a31 31 0 0 1-62 0v-31h-63a125 125 0 0 1-125-125v-63h1000v63a125 125 0 0 1-125 125h-62v31a31 31 0 0 1-63 0v-31h-500v31z m-250-281h1000v-563a125 125 0 0 0-125-125h-750a125 125 0 0 0-125 125v563z m781-125a31 31 0 0 1-31-32v-62a31 31 0 0 1 31-31h63a31 31 0 0 1 31 31v62a31 31 0 0 1-31 32h-63z" horiz-adv-x="1000" />

<glyph glyph-name="calendar-event" unicode="&#xe8c4;" d="M63 600v-625a63 63 0 0 1 62-63h750a63 63 0 0 1 63 63v625h-875z m62 188a125 125 0 0 1-125-125v-688a125 125 0 0 1 125-125h750a125 125 0 0 1 125 125v688a125 125 0 0 1-125 125h-750z m94 62a31 31 0 0 0 31-31v-31a31 31 0 0 0-62 0v31a31 31 0 0 0 31 31z m562 0a31 31 0 0 0 32-31v-31a31 31 0 0 0-63 0v31a31 31 0 0 0 31 31z" horiz-adv-x="1000" />

<glyph glyph-name="calendar-fill" unicode="&#xe8c5;" d="M219 850a31 31 0 0 0 31-31v-31a31 31 0 0 0-62 0v31a31 31 0 0 0 31 31z m562 0a31 31 0 0 0 32-31v-31a31 31 0 0 0-63 0v31a31 31 0 0 0 31 31z m-656-62a125 125 0 0 1-125-125v-63h1000v63a125 125 0 0 1-125 125h-750z m875-250h-1000v-563a125 125 0 0 1 125-125h750a125 125 0 0 1 125 125v563z" horiz-adv-x="1000" />

<glyph glyph-name="calendar-minus-fill" unicode="&#xe8c6;" d="M250 819a31 31 0 0 1-62 0v-31h-63a125 125 0 0 1-125-125v-63h1000v63a125 125 0 0 1-125 125h-62v31a31 31 0 0 1-63 0v-31h-500v31z m-250-281h1000v-563a125 125 0 0 0-125-125h-750a125 125 0 0 0-125 125v563z m375-313a31 31 0 0 1 0-62h250a31 31 0 0 1 0 62h-250z" horiz-adv-x="1000" />

<glyph glyph-name="calendar-minus" unicode="&#xe8c7;" d="M344 256a31 31 0 0 0 31 32h250a31 31 0 0 0 0-63h-250a31 31 0 0 0-31 31z m-281 344v-625a63 63 0 0 1 62-63h750a63 63 0 0 1 63 63v625h-875z m62 188a125 125 0 0 1-125-125v-688a125 125 0 0 1 125-125h750a125 125 0 0 1 125 125v688a125 125 0 0 1-125 125h-750z m94 62a31 31 0 0 0 31-31v-31a31 31 0 0 0-62 0v31a31 31 0 0 0 31 31z m562 0a31 31 0 0 0 32-31v-31a31 31 0 0 0-63 0v31a31 31 0 0 0 31 31z" horiz-adv-x="1000" />

<glyph glyph-name="calendar-month-fill" unicode="&#xe8c8;" d="M250 819a31 31 0 0 1-62 0v-31h-63a125 125 0 0 1-125-125v-63h1000v63a125 125 0 0 1-125 125h-62v31a31 31 0 0 1-63 0v-31h-500v31z m-250-281h1000v-563a125 125 0 0 0-125-125h-750a125 125 0 0 0-125 125v563z m160-459l34 100h124l34-100h44l-118 334h-44l-118-334h44z m97 283l49-148h-101l50 148h2z m359-26h-43v-159c0-41-25-64-62-64-34 0-62 15-62 63v160h-42v-172c0-59 38-89 91-89 41 0 65 18 74 38h2v-34h42v257z m79-276c5-21 27-40 62-40 40 0 67 24 67 64v38h-2c-10-22-38-40-73-40-60 0-102 42-102 119v21c0 75 42 118 102 118 35 0 63-19 75-40h1v36h41v-252c0-66-51-99-109-99-66 0-99 33-105 75h43z m129 159c0 52-26 85-67 85-43 0-68-31-68-85v-16c0-53 25-85 68-85 42 0 67 32 67 85v16z" horiz-adv-x="1000" />

<glyph glyph-name="calendar-month" unicode="&#xe8c9;" d="M160 142l34 100h124l34-100h44l-118 333h-44l-118-333h44z m97 283l49-149h-101l50 149h2z m359-27h-43v-159c0-40-25-64-62-64-34 0-62 16-62 64v159h-42v-171c0-59 38-89 91-89 41 0 65 17 74 37h2v-33h42v256z m141-315c-35 0-57 19-62 40h-43c6-43 39-75 105-75 58 0 109 33 109 98v252h-41v-36h-1c-12 22-40 40-75 40-60 0-102-42-102-118v-21c0-77 42-119 102-119 35 0 63 19 73 41h2v-38c0-40-27-64-67-64z m0 283c41 0 67-33 67-85v-16c0-53-25-85-67-85-43 0-68 32-68 85v16c0 54 25 85 68 85z m-694 234v-625a63 63 0 0 1 62-63h750a63 63 0 0 1 63 63v625h-875z m62 188a125 125 0 0 1-125-125v-688a125 125 0 0 1 125-125h750a125 125 0 0 1 125 125v688a125 125 0 0 1-125 125h-750z m94 62a31 31 0 0 0 31-31v-31a31 31 0 0 0-62 0v31a31 31 0 0 0 31 31z m562 0a31 31 0 0 0 32-31v-31a31 31 0 0 0-63 0v31a31 31 0 0 0 31 31z" horiz-adv-x="1000" />

<glyph glyph-name="calendar-plus-fill" unicode="&#xe8ca;" d="M250 819a31 31 0 0 1-62 0v-31h-63a125 125 0 0 1-125-125v-63h1000v63a125 125 0 0 1-125 125h-62v31a31 31 0 0 1-63 0v-31h-500v31z m-250-281h1000v-563a125 125 0 0 0-125-125h-750a125 125 0 0 0-125 125v563z m531-219a31 31 0 0 1-62 0v-94h-94a31 31 0 0 1 0-62h94v-94a31 31 0 0 1 62 0v94h94a31 31 0 0 1 0 62h-94v94z" horiz-adv-x="1000" />

<glyph glyph-name="calendar-plus" unicode="&#xe8cb;" d="M500 413a31 31 0 0 0 31-32v-125a31 31 0 0 0-31-31h-125a31 31 0 0 0 0 63h94v93a31 31 0 0 0 31 32z m-31-157a31 31 0 0 0 31 32h125a31 31 0 0 0 0-63h-94v-94a31 31 0 0 0-62 0v125z m-406 344v-625a63 63 0 0 1 62-63h750a63 63 0 0 1 63 63v625h-875z m62 188a125 125 0 0 1-125-125v-688a125 125 0 0 1 125-125h750a125 125 0 0 1 125 125v688a125 125 0 0 1-125 125h-750z m94 62a31 31 0 0 0 31-31v-31a31 31 0 0 0-62 0v31a31 31 0 0 0 31 31z m562 0a31 31 0 0 0 32-31v-31a31 31 0 0 0-63 0v31a31 31 0 0 0 31 31z" horiz-adv-x="1000" />

<glyph glyph-name="calendar-range-fill" unicode="&#xe8cc;" d="M250 819a31 31 0 0 1-62 0v-31h-63a125 125 0 0 1-125-125v-63h1000v63a125 125 0 0 1-125 125h-62v31a31 31 0 0 1-63 0v-31h-500v31z m-250-281h1000v-125h-375a63 63 0 0 1 0-125h375v-313a125 125 0 0 0-125-125h-750a125 125 0 0 0-125 125v125h313a63 63 0 1 1 0 125h-313v313z" horiz-adv-x="1000" />

<glyph glyph-name="calendar-range" unicode="&#xe8cd;" d="M63 600v-625a63 63 0 0 1 62-63h750a63 63 0 0 1 63 63v625h-875z m62 188a125 125 0 0 1-125-125v-688a125 125 0 0 1 125-125h750a125 125 0 0 1 125 125v688a125 125 0 0 1-125 125h-750z m94 62a31 31 0 0 0 31-31v-31a31 31 0 0 0-62 0v31a31 31 0 0 0 31 31z m562 0a31 31 0 0 0 32-31v-31a31 31 0 0 0-63 0v31a31 31 0 0 0 31 31z m-218-437a63 63 0 0 0 62 62h313v-125h-313a63 63 0 0 0-62 63z m-500-125h250a63 63 0 0 0 0-125h-250v125z" horiz-adv-x="1000" />

<glyph glyph-name="calendar-week-fill" unicode="&#xe8ce;" d="M250 819a31 31 0 0 1-62 0v-31h-63a125 125 0 0 1-125-125v-63h1000v63a125 125 0 0 1-125 125h-62v31a31 31 0 0 1-63 0v-31h-500v31z m-250-281h1000v-563a125 125 0 0 0-125-125h-750a125 125 0 0 0-125 125v563z m594-125a31 31 0 0 1-31-32v-62a31 31 0 0 1 31-31h62a31 31 0 0 1 32 31v62a31 31 0 0 1-32 32h-62z m187 0a31 31 0 0 1-31-32v-62a31 31 0 0 1 31-31h63a31 31 0 0 1 31 31v62a31 31 0 0 1-31 32h-63z m-656-219a31 31 0 0 0 31 31h63a31 31 0 0 0 31-31v-63a31 31 0 0 0-31-31h-63a31 31 0 0 0-31 31v63z m219 31a31 31 0 0 1-31-31v-63a31 31 0 0 1 31-31h62a31 31 0 0 1 32 31v63a31 31 0 0 1-32 31h-62z" horiz-adv-x="1000" />

<glyph glyph-name="calendar-week" unicode="&#xe8cf;" d="M63 600v-625a63 63 0 0 1 62-63h750a63 63 0 0 1 63 63v625h-875z m62 188a125 125 0 0 1-125-125v-688a125 125 0 0 1 125-125h750a125 125 0 0 1 125 125v688a125 125 0 0 1-125 125h-750z m94 62a31 31 0 0 0 31-31v-31a31 31 0 0 0-62 0v31a31 31 0 0 0 31 31z m562 0a31 31 0 0 0 32-31v-31a31 31 0 0 0-63 0v31a31 31 0 0 0 31 31z m-93-406a31 31 0 0 0 31 31h62a31 31 0 0 0 32-31v-63a31 31 0 0 0-32-31h-62a31 31 0 0 0-31 31v63z m-188 0a31 31 0 0 0 31 31h63a31 31 0 0 0 31-31v-63a31 31 0 0 0-31-31h-63a31 31 0 0 0-31 31v63z m-312-188a31 31 0 0 0 31 32h62a31 31 0 0 0 32-32v-62a31 31 0 0 0-32-31h-62a31 31 0 0 0-31 31v62z m187 0a31 31 0 0 0 31 32h63a31 31 0 0 0 31-32v-62a31 31 0 0 0-31-31h-63a31 31 0 0 0-31 31v62z" horiz-adv-x="1000" />

<glyph glyph-name="calendar" unicode="&#xe8d0;" d="M63 600v-625a63 63 0 0 1 62-63h750a63 63 0 0 1 63 63v625h-875z m62 188a125 125 0 0 1-125-125v-688a125 125 0 0 1 125-125h750a125 125 0 0 1 125 125v688a125 125 0 0 1-125 125h-750z m94 62a31 31 0 0 0 31-31v-31a31 31 0 0 0-62 0v31a31 31 0 0 0 31 31z m562 0a31 31 0 0 0 32-31v-31a31 31 0 0 0-63 0v31a31 31 0 0 0 31 31z" horiz-adv-x="1000" />

<glyph glyph-name="calendar2-check-fill" unicode="&#xe8d1;" d="M250 819a31 31 0 0 1-62 0v-31h-63a125 125 0 0 1-125-125v-688a125 125 0 0 1 125-125h750a125 125 0 0 1 125 125v688a125 125 0 0 1-125 125h-62v31a31 31 0 0 1-63 0v-31h-500v31z m-125-188a31 31 0 0 0 31 32h688a31 31 0 0 0 31-32v-62a31 31 0 0 0-31-31h-688a31 31 0 0 0-31 31v62z m553-334a31 31 0 0 1-44 44l-165-166-72 72a31 31 0 1 1-44-44l94-94a31 31 0 0 1 44 0l187 188z" horiz-adv-x="1000" />

<glyph glyph-name="calendar2-check" unicode="&#xe8d2;" d="M678 341a31 31 0 0 0 0-44l-187-188a31 31 0 0 0-44 0l-94 94a31 31 0 0 0 44 44l72-72 165 166a31 31 0 0 0 44 0z m197 384h-750a63 63 0 0 1-62-62v-688a63 63 0 0 1 62-63h750a63 63 0 0 1 63 63v688a63 63 0 0 1-63 62z m-750 63a125 125 0 0 1-125-125v-688a125 125 0 0 1 125-125h750a125 125 0 0 1 125 125v688a125 125 0 0 1-125 125h-750z m94 62a31 31 0 0 0 31-31v-31a31 31 0 0 0-62 0v31a31 31 0 0 0 31 31z m562 0a31 31 0 0 0 32-31v-31a31 31 0 0 0-63 0v31a31 31 0 0 0 31 31z m-625-250a31 31 0 0 0 32 31h625a31 31 0 0 0 31-31v-62a31 31 0 0 0-31-32h-625a31 31 0 0 0-32 32v62z" horiz-adv-x="1000" />

<glyph glyph-name="calendar2-date-fill" unicode="&#xe8d3;" d="M250 819a31 31 0 0 1-62 0v-31h-63a125 125 0 0 1-125-125v-688a125 125 0 0 1 125-125h750a125 125 0 0 1 125 125v688a125 125 0 0 1-125 125h-62v31a31 31 0 0 1-63 0v-31h-500v31z m-125-188a31 31 0 0 0 31 32h688a31 31 0 0 0 31-32v-62a31 31 0 0 0-31-31h-688a31 31 0 0 0-31 31v62z m459-565c-70 0-104 48-107 88h43c2-23 24-51 65-51 53 0 82 53 82 135h-2c-9-26-39-49-86-49-53 0-105 38-105 110 0 72 55 114 112 114 74 0 123-46 123-167 0-113-47-180-125-180z m4 159c39 0 74 31 74 74 0 52-33 77-73 77-36 0-73-24-73-76 0-51 34-75 72-75z m-185 181v-333h-42v288h-1c-18-10-55-33-79-49v44a788 788 0 0 0 82 50h40z" horiz-adv-x="1000" />

<glyph glyph-name="calendar2-date" unicode="&#xe8d4;" d="M403 73v333h-40a788 788 0 0 1-82-50v-44c24 16 61 39 79 49h1v-288h42z m74 81c3-40 37-88 107-88 78 0 125 67 125 180 0 121-49 167-123 167-57 0-112-42-112-114 0-72 52-110 105-110 47 0 77 23 86 49h2c0-82-29-135-82-135-41 0-63 28-65 51h-43z m185 145c0-43-35-74-74-74-38 0-72 24-72 75 0 52 37 76 73 76 40 0 73-25 73-77z m213 426h-750a63 63 0 0 1-62-62v-688a63 63 0 0 1 62-63h750a63 63 0 0 1 63 63v688a63 63 0 0 1-63 62z m-750 63a125 125 0 0 1-125-125v-688a125 125 0 0 1 125-125h750a125 125 0 0 1 125 125v688a125 125 0 0 1-125 125h-750z m94 62a31 31 0 0 0 31-31v-31a31 31 0 0 0-62 0v31a31 31 0 0 0 31 31z m562 0a31 31 0 0 0 32-31v-31a31 31 0 0 0-63 0v31a31 31 0 0 0 31 31z m-625-250a31 31 0 0 0 32 31h625a31 31 0 0 0 31-31v-62a31 31 0 0 0-31-32h-625a31 31 0 0 0-32 32v62z" horiz-adv-x="1000" />

<glyph glyph-name="calendar2-day-fill" unicode="&#xe8d5;" d="M250 819a31 31 0 0 1-62 0v-31h-63a125 125 0 0 1-125-125v-688a125 125 0 0 1 125-125h750a125 125 0 0 1 125 125v688a125 125 0 0 1-125 125h-62v31a31 31 0 0 1-63 0v-31h-500v31z m-125-188a31 31 0 0 0 31 32h688a31 31 0 0 0 31-32v-62a31 31 0 0 0-31-31h-688a31 31 0 0 0-31 31v62z m576-272a27 27 0 0 0-27 27c0 15 12 27 27 27a27 27 0 1 0 0-54z m21-35v-257h-42v257h42z m-429-257v144h141v38h-141v113h154v39h-197v-334h43z m206 0h42v159c0 35 14 63 60 63 7 0 16 0 20-1v39a113 113 0 0 1-16 1c-36 0-55-20-63-36h-1v32h-42v-257z" horiz-adv-x="1000" />

<glyph glyph-name="calendar2-day" unicode="&#xe8d6;" d="M293 67v144h141v38h-141v113h154v39h-197v-334h43z m206 0h42v159c0 35 14 63 60 63 7 0 16 0 20-1v39a113 113 0 0 1-16 1c-36 0-55-20-63-36h-1v32h-42v-257z m175 319c0-15 12-27 27-27a27 27 0 1 1 0 54 27 27 0 0 1-27-27z m6-319h42v257h-42v-257z m195 658h-750a63 63 0 0 1-62-62v-688a63 63 0 0 1 62-63h750a63 63 0 0 1 63 63v688a63 63 0 0 1-63 62z m-750 63a125 125 0 0 1-125-125v-688a125 125 0 0 1 125-125h750a125 125 0 0 1 125 125v688a125 125 0 0 1-125 125h-750z m94 62a31 31 0 0 0 31-31v-31a31 31 0 0 0-62 0v31a31 31 0 0 0 31 31z m562 0a31 31 0 0 0 32-31v-31a31 31 0 0 0-63 0v31a31 31 0 0 0 31 31z m-625-250a31 31 0 0 0 32 31h625a31 31 0 0 0 31-31v-62a31 31 0 0 0-31-32h-625a31 31 0 0 0-32 32v62z" horiz-adv-x="1000" />

<glyph glyph-name="calendar2-event-fill" unicode="&#xe8d7;" d="M875 725h-750a63 63 0 0 1-62-62v-688a63 63 0 0 1 62-63h750a63 63 0 0 1 63 63v688a63 63 0 0 1-63 62z m-750 63a125 125 0 0 1-125-125v-688a125 125 0 0 1 125-125h750a125 125 0 0 1 125 125v688a125 125 0 0 1-125 125h-750z m94 62a31 31 0 0 0 31-31v-31a31 31 0 0 0-62 0v31a31 31 0 0 0 31 31z m562 0a31 31 0 0 0 32-31v-31a31 31 0 0 0-63 0v31a31 31 0 0 0 31 31z m-625-250a31 31 0 0 0 32 31h625a31 31 0 0 0 31-31v-62a31 31 0 0 0-31-32h-625a31 31 0 0 0-32 32v62z" horiz-adv-x="1000" />

<glyph glyph-name="calendar2-event" unicode="&#xe8d8;" d="M250 819a31 31 0 0 1-62 0v-31h-63a125 125 0 0 1-125-125v-688a125 125 0 0 1 125-125h750a125 125 0 0 1 125 125v688a125 125 0 0 1-125 125h-62v31a31 31 0 0 1-63 0v-31h-500v31z m-125-188a31 31 0 0 0 31 32h688a31 31 0 0 0 31-32v-62a31 31 0 0 0-31-31h-688a31 31 0 0 0-31 31v62z m594-218a31 31 0 0 1-31-32v-62a31 31 0 0 1 31-31h62a31 31 0 0 1 32 31v62a31 31 0 0 1-32 32h-62z" horiz-adv-x="1000" />

<glyph glyph-name="calendar2-fill" unicode="&#xe8d9;" d="M219 850a31 31 0 0 0 31-31v-31h500v31a31 31 0 0 0 63 0v-31h62a125 125 0 0 0 125-125v-688a125 125 0 0 0-125-125h-750a125 125 0 0 0-125 125v688a125 125 0 0 0 125 125h63v31a31 31 0 0 0 31 31z m-63-187a31 31 0 0 1-31-32v-62a31 31 0 0 1 31-31h688a31 31 0 0 1 31 31v62a31 31 0 0 1-31 32h-688z" horiz-adv-x="1000" />

<glyph glyph-name="calendar2-minus-fill" unicode="&#xe8da;" d="M250 819a31 31 0 0 1-62 0v-31h-63a125 125 0 0 1-125-125v-688a125 125 0 0 1 125-125h750a125 125 0 0 1 125 125v688a125 125 0 0 1-125 125h-62v31a31 31 0 0 1-63 0v-31h-500v31z m-125-188a31 31 0 0 0 31 32h688a31 31 0 0 0 31-32v-62a31 31 0 0 0-31-31h-688a31 31 0 0 0-31 31v62z m250-406a31 31 0 0 1 0-62h250a31 31 0 0 1 0 62h-250z" horiz-adv-x="1000" />

<glyph glyph-name="calendar2-minus" unicode="&#xe8db;" d="M344 194a31 31 0 0 0 31 31h250a31 31 0 0 0 0-62h-250a31 31 0 0 0-31 31z m531 531h-750a63 63 0 0 1-62-62v-688a63 63 0 0 1 62-63h750a63 63 0 0 1 63 63v688a63 63 0 0 1-63 62z m-750 63a125 125 0 0 1-125-125v-688a125 125 0 0 1 125-125h750a125 125 0 0 1 125 125v688a125 125 0 0 1-125 125h-750z m94 62a31 31 0 0 0 31-31v-31a31 31 0 0 0-62 0v31a31 31 0 0 0 31 31z m562 0a31 31 0 0 0 32-31v-31a31 31 0 0 0-63 0v31a31 31 0 0 0 31 31z m-625-250a31 31 0 0 0 32 31h625a31 31 0 0 0 31-31v-62a31 31 0 0 0-31-32h-625a31 31 0 0 0-32 32v62z" horiz-adv-x="1000" />

<glyph glyph-name="calendar2-month-fill" unicode="&#xe8dc;" d="M250 819a31 31 0 0 1-62 0v-31h-63a125 125 0 0 1-125-125v-688a125 125 0 0 1 125-125h750a125 125 0 0 1 125 125v688a125 125 0 0 1-125 125h-62v31a31 31 0 0 1-63 0v-31h-500v31z m-125-188a31 31 0 0 0 31 32h688a31 31 0 0 0 31-32v-62a31 31 0 0 0-31-31h-688a31 31 0 0 0-31 31v62z m35-552l34 100h124l34-100h44l-118 334h-44l-118-334h44z m97 283l49-148h-101l50 148h2z m359-26h-43v-159c0-41-25-64-62-64-34 0-62 15-62 63v160h-42v-172c0-59 38-89 91-89 41 0 65 18 74 38h2v-34h42v257z m79-276c5-21 27-40 62-40 40 0 67 24 67 64v38h-2c-10-22-38-40-73-40-60 0-102 42-102 119v21c0 75 42 118 102 118 35 0 63-19 75-40h1v36h41v-252c0-66-51-99-109-99-66 0-99 33-105 75h43z m129 159c0 52-26 85-67 85-43 0-68-31-68-85v-16c0-53 25-85 68-85 42 0 67 32 67 85v16z" horiz-adv-x="1000" />

</font>
</defs>
</svg>
