<svg viewBox="0 0 12 12" xmlns="http://www.w3.org/2000/svg" fill-rule="evenodd" clip-rule="evenodd" stroke-linejoin="round" stroke-miterlimit="2"><path d="M4.5.75a.376.376 0 01-.375-.375C4.125.169 4.294 0 4.5 0h3c.206 0 .375.169.375.375A.376.376 0 017.5.75h-.75v.804c2.53.369 4.5 2.57 4.5 5.196 0 1.59-.722 3.024-1.854 3.99l.62.62a.376.376 0 01-.531.531l-.7-.7a5.194 5.194 0 01-5.57 0l-.699.699a.374.374 0 11-.531-.53l.619-.62A5.244 5.244 0 01.75 6.75c0-2.626 1.97-4.827 4.5-5.196V.75H4.5zM6 11.25c2.469 0 4.5-2.031 4.5-4.5S8.469 2.25 6 2.25s-4.5 2.031-4.5 4.5 2.031 4.5 4.5 4.5zm0-7.875c.206 0 .375.169.375.375v3a.378.378 0 01-.04.168L5.21 9.168a.376.376 0 01-.336.21.377.377 0 01-.334-.546l1.085-2.171V3.75c0-.206.169-.375.375-.375zM.645 4.04a1.875 1.875 0 01-.644-1.414C.001 1.597.847.751 1.876.751c.542 0 1.058.235 1.414.644A6.027 6.027 0 00.645 4.04zM8.71 1.395a1.875 1.875 0 011.414-.644c1.029 0 1.875.846 1.875 1.875 0 .542-.235 1.058-.644 1.414A6.027 6.027 0 008.71 1.395z"/></svg>