<svg viewBox="0 0 16 16" xmlns="http://www.w3.org/2000/svg" fill-rule="evenodd" clip-rule="evenodd" stroke-linejoin="round" stroke-miterlimit="2"><path d="M.5 0c.274 0 .5.226.5.5v15c0 .274-.226.5-.5.5a.503.503 0 01-.5-.5V.5C0 .226.226 0 .5 0zM8 13.5c0-.274.226-.5.5-.5h7c.274 0 .5.226.5.5v1c0 .274-.226.5-.5.5h-7a.503.503 0 01-.5-.5v-1zm-2-4c0-.274.226-.5.5-.5h6c.274 0 .5.226.5.5v1c0 .274-.226.5-.5.5h-6a.503.503 0 01-.5-.5v-1zm6-4a.5.5 0 00-.5-.5h-7a.5.5 0 00-.5.5v1a.5.5 0 00.5.5h7a.5.5 0 00.5-.5v-1zm-5-4a.5.5 0 00-.5-.5h-4a.5.5 0 00-.5.5v1a.5.5 0 00.5.5h4a.5.5 0 00.5-.5v-1z"/></svg>