<svg xmlns="http://www.w3.org/2000/svg" fill-rule="evenodd" stroke-linejoin="round" stroke-miterlimit="2" clip-rule="evenodd" viewBox="0 0 16 16"><defs/><path d="M14 5c0 .057 0 .113-.003.17a3.002 3.002 0 01.822 5.216c.121.359.182.736.182 1.115 0 1.92-1.58 3.5-3.5 3.5a3.5 3.5 0 01-1.883-.55 5 5 0 01-3.619 1.55c-2.743 0-5-2.257-5-5 0-.565.095-1.126.283-1.659A5.002 5.002 0 010 5.999c0-2.743 2.257-5 5-5 .301 0 .6.027.896.081A5.002 5.002 0 019 0c2.743 0 5 2.257 5 5zm-.335 1.113a1.002 1.002 0 01-.667-.977L13 5c0-2.194-1.806-4-4-4-.901 0-1.776.305-2.483.864a1 1 0 01-.8.2 4.03 4.03 0 00-.719-.065c-2.195 0-4 1.805-4 4 0 .987.366 1.941 1.026 2.675.244.271.321.656.2 1-.15.427-.227.876-.227 1.329 0 2.194 1.805 4 4 4a4.002 4.002 0 002.897-1.242 1.002 1.002 0 011.262-.152c.402.257.869.393 1.346.393 1.371 0 2.5-1.128 2.5-2.5a2.49 2.49 0 00-.131-.798 1.002 1.002 0 01.341-1.113 2.002 2.002 0 00-.547-3.478zM8 5a3.001 3.001 0 010 6 3.001 3.001 0 010-6z"/></svg>