<svg xmlns="http://www.w3.org/2000/svg" fill-rule="evenodd" stroke-linejoin="round" stroke-miterlimit="2" clip-rule="evenodd" viewBox="0 0 16 16"><defs/><path d="M2 0C.903 0 0 .903 0 2v12c0 1.097.903 2 2 2h12c1.097 0 2-.903 2-2V2c0-1.097-.903-2-2-2H2zm12 1H2c-.549 0-1 .451-1 1v12c0 .549.451 1 1 1h12c.549 0 1-.451 1-1V2c0-.549-.451-1-1-1zM8.93 6.588l-2.29.287-.082.38.45.083c.294.07.352.176.288.469l-.738 3.468c-.194.897.105 1.319.808 1.319.545 0 1.178-.252 1.465-.598l.088-.416c-.2.176-.492.246-.686.246-.275 0-.375-.193-.304-.533L8.93 6.588zM8 3.5a1 1 0 110 2 1 1 0 010-2z"/></svg>