<svg xmlns="http://www.w3.org/2000/svg" fill-rule="evenodd" stroke-linejoin="round" stroke-miterlimit="2" clip-rule="evenodd" viewBox="0 0 16 16"><defs/><path d="M8 16c4.389 0 8-3.611 8-8 0-4.389-3.611-8-8-8-4.389 0-8 3.611-8 8 0 4.389 3.611 8 8 8zm0-1c3.84 0 7-3.16 7-7s-3.16-7-7-7-7 3.16-7 7 3.16 7 7 7zm.93-8.412l-2.29.287-.082.38.45.083c.294.07.352.176.288.469l-.738 3.468c-.194.897.105 1.319.808 1.319.545 0 1.178-.252 1.465-.598l.088-.416c-.2.176-.492.246-.686.246-.275 0-.375-.193-.304-.533L8.93 6.588zM8 3.5a1 1 0 110 2 1 1 0 010-2z"/></svg>