<svg xmlns="http://www.w3.org/2000/svg" fill-rule="evenodd" stroke-linejoin="round" stroke-miterlimit="2" clip-rule="evenodd" viewBox="0 0 16 16"><defs/><path d="M3 10.75c.174.126.357.24.546.341l.062.033.039.02.034.017.034.017.044.021.043.02.044.02.043.02.044.019.035.015.036.014.035.015.036.014.018.007.082.032.017.007.026.009.019.008.134.048.01.004c1 .349 2.254.546 3.584.549H8c1.475 0 2.857-.237 3.907-.657l.036-.014.035-.015.036-.015.035-.015.035-.015.047-.02.043-.02.05-.023.015-.007.082-.04.034-.017.034-.017.033-.017.033-.017c.193-.102.376-.215.545-.341V12c0 1.104-2.24 2-5 2s-5-.896-5-2v-1.25zm1.693-.25C3.655 10.134 3 9.598 3 9V6.75c.338.243.705.443 1.093.593C5.143 7.763 6.525 8 8 8s2.857-.237 3.907-.657A4.841 4.841 0 0013 6.75V9c0 .598-.655 1.134-1.693 1.5a7.28 7.28 0 01-.806.232l-.024.006c-.072.016-.145.032-.22.047l-.062.013-.065.012-.15.027-.062.011-.056.009-.068.01-.024.004-.099.015-.068.009-.07.009-.062.008-.051.006-.051.006-.06.007-.06.006-.07.007-.056.005-.058.006-.057.004-.062.005-.075.006-.057.004-.057.003-.066.004-.064.003-.07.004-.058.002-.058.002-.057.002-.063.002-.064.001-.079.002h-.059l-.06.001h-.124l-.064-.001-.078-.001-.059-.001-.058-.001-.029-.001-.063-.002-.064-.002-.077-.003-.057-.003-.058-.003-.067-.004-.084-.005-.076-.005-.057-.004-.056-.005-.056-.005-.061-.005-.06-.006-.072-.007-.065-.007-.05-.006-.052-.006-.059-.007-.058-.007-.075-.01-.051-.007-.099-.015-.063-.01-.057-.009-.067-.011-.023-.004a21.852 21.852 0 01-.15-.027l-.065-.012-.062-.013a10.512 10.512 0 01-.22-.047l-.024-.006a7.28 7.28 0 01-.806-.232zM3 3.987C3.017 2.888 5.25 2 8 2c2.761 0 5 .895 5 2v1c0 1.105-2.239 2-5 2s-5-.895-5-2V3.987z"/></svg>